<mxfile host="app.diagrams.net" agent="Mozilla/5.0 (Macintosh; Intel Mac OS X 10_15_7) AppleWebKit/537.36 (KHTML, like Gecko) Chrome/134.0.0.0 Safari/537.36" version="26.1.1" pages="2">
  <diagram name="Arquitetura Principal do Sistema" id="1aioscKN3rz0F5LWiPXg">
    <mxGraphModel dx="3193" dy="2014" grid="1" gridSize="10" guides="1" tooltips="1" connect="1" arrows="1" fold="1" page="1" pageScale="1" pageWidth="850" pageHeight="1100" math="0" shadow="0">
      <root>
        <mxCell id="0" />
        <mxCell id="1" parent="0" />
        <mxCell id="BhR9hD4-15x6Vp5-vJWZ-80" value="" style="edgeStyle=orthogonalEdgeStyle;rounded=0;orthogonalLoop=1;jettySize=auto;html=1;" parent="1" target="BhR9hD4-15x6Vp5-vJWZ-79" edge="1">
          <mxGeometry relative="1" as="geometry">
            <mxPoint x="600" y="10" as="sourcePoint" />
          </mxGeometry>
        </mxCell>
        <mxCell id="BhR9hD4-15x6Vp5-vJWZ-71" style="edgeStyle=orthogonalEdgeStyle;rounded=0;orthogonalLoop=1;jettySize=auto;html=1;" parent="1" source="BhR9hD4-15x6Vp5-vJWZ-70" target="BhR9hD4-15x6Vp5-vJWZ-72" edge="1">
          <mxGeometry relative="1" as="geometry">
            <mxPoint x="996.0000000000002" y="-30" as="targetPoint" />
          </mxGeometry>
        </mxCell>
        <mxCell id="BhR9hD4-15x6Vp5-vJWZ-70" value="content-manager" style="whiteSpace=wrap;html=1;" parent="1" vertex="1">
          <mxGeometry x="936" y="-170" width="120" height="60" as="geometry" />
        </mxCell>
        <mxCell id="BhR9hD4-15x6Vp5-vJWZ-74" value="" style="edgeStyle=orthogonalEdgeStyle;rounded=0;orthogonalLoop=1;jettySize=auto;html=1;" parent="1" source="BhR9hD4-15x6Vp5-vJWZ-72" target="BhR9hD4-15x6Vp5-vJWZ-73" edge="1">
          <mxGeometry relative="1" as="geometry" />
        </mxCell>
        <mxCell id="BhR9hD4-15x6Vp5-vJWZ-76" value="" style="edgeStyle=orthogonalEdgeStyle;rounded=0;orthogonalLoop=1;jettySize=auto;html=1;" parent="1" source="BhR9hD4-15x6Vp5-vJWZ-72" target="BhR9hD4-15x6Vp5-vJWZ-75" edge="1">
          <mxGeometry relative="1" as="geometry" />
        </mxCell>
        <mxCell id="BhR9hD4-15x6Vp5-vJWZ-78" style="edgeStyle=orthogonalEdgeStyle;rounded=0;orthogonalLoop=1;jettySize=auto;html=1;" parent="1" source="BhR9hD4-15x6Vp5-vJWZ-72" target="BhR9hD4-15x6Vp5-vJWZ-77" edge="1">
          <mxGeometry relative="1" as="geometry" />
        </mxCell>
        <mxCell id="BhR9hD4-15x6Vp5-vJWZ-72" value="generates instructions to which module will be rendered" style="rounded=0;whiteSpace=wrap;html=1;" parent="1" vertex="1">
          <mxGeometry x="920" y="-60" width="152" height="60" as="geometry" />
        </mxCell>
        <mxCell id="BhR9hD4-15x6Vp5-vJWZ-81" style="edgeStyle=orthogonalEdgeStyle;rounded=0;orthogonalLoop=1;jettySize=auto;html=1;entryX=1;entryY=0.5;entryDx=0;entryDy=0;" parent="1" source="BhR9hD4-15x6Vp5-vJWZ-73" target="BhR9hD4-15x6Vp5-vJWZ-79" edge="1">
          <mxGeometry relative="1" as="geometry" />
        </mxCell>
        <mxCell id="BhR9hD4-15x6Vp5-vJWZ-73" value="GET&lt;div&gt;/modules&lt;/div&gt;" style="rounded=0;whiteSpace=wrap;html=1;" parent="1" vertex="1">
          <mxGeometry x="784" y="40" width="152" height="60" as="geometry" />
        </mxCell>
        <mxCell id="BhR9hD4-15x6Vp5-vJWZ-75" value="POST&lt;div&gt;/modules&lt;/div&gt;" style="rounded=0;whiteSpace=wrap;html=1;" parent="1" vertex="1">
          <mxGeometry x="950" y="40" width="152" height="60" as="geometry" />
        </mxCell>
        <mxCell id="BhR9hD4-15x6Vp5-vJWZ-77" value="PATCH&lt;div&gt;/modules/{id}&lt;/div&gt;" style="rounded=0;whiteSpace=wrap;html=1;" parent="1" vertex="1">
          <mxGeometry x="1123" y="40" width="152" height="60" as="geometry" />
        </mxCell>
        <mxCell id="BhR9hD4-15x6Vp5-vJWZ-83" value="" style="edgeStyle=orthogonalEdgeStyle;rounded=0;orthogonalLoop=1;jettySize=auto;html=1;" parent="1" source="BhR9hD4-15x6Vp5-vJWZ-79" target="BhR9hD4-15x6Vp5-vJWZ-82" edge="1">
          <mxGeometry relative="1" as="geometry" />
        </mxCell>
        <mxCell id="BhR9hD4-15x6Vp5-vJWZ-79" value="Get modules configuration" style="rounded=0;whiteSpace=wrap;html=1;" parent="1" vertex="1">
          <mxGeometry x="510" y="40" width="180" height="60" as="geometry" />
        </mxCell>
        <mxCell id="BhR9hD4-15x6Vp5-vJWZ-82" value="Render screen with the correct modules" style="rounded=0;whiteSpace=wrap;html=1;" parent="1" vertex="1">
          <mxGeometry x="510" y="130" width="180" height="60" as="geometry" />
        </mxCell>
        <mxCell id="BhR9hD4-15x6Vp5-vJWZ-330" style="edgeStyle=orthogonalEdgeStyle;rounded=0;orthogonalLoop=1;jettySize=auto;html=1;entryX=0.5;entryY=0;entryDx=0;entryDy=0;" parent="1" source="BhR9hD4-15x6Vp5-vJWZ-86" target="BhR9hD4-15x6Vp5-vJWZ-174" edge="1">
          <mxGeometry relative="1" as="geometry" />
        </mxCell>
        <mxCell id="ULhaOfNwI5lLK6dhQ9N3-2" value="onLoad" style="edgeLabel;html=1;align=center;verticalAlign=middle;resizable=0;points=[];" vertex="1" connectable="0" parent="BhR9hD4-15x6Vp5-vJWZ-330">
          <mxGeometry x="-0.2667" y="6" relative="1" as="geometry">
            <mxPoint x="-1" as="offset" />
          </mxGeometry>
        </mxCell>
        <mxCell id="BhR9hD4-15x6Vp5-vJWZ-86" value="visual-reference-module" style="rounded=0;whiteSpace=wrap;html=1;" parent="1" vertex="1">
          <mxGeometry x="941.5" y="296.5" width="180" height="60" as="geometry" />
        </mxCell>
        <mxCell id="BhR9hD4-15x6Vp5-vJWZ-281" value="" style="edgeStyle=orthogonalEdgeStyle;rounded=0;orthogonalLoop=1;jettySize=auto;html=1;" parent="1" source="BhR9hD4-15x6Vp5-vJWZ-88" target="BhR9hD4-15x6Vp5-vJWZ-280" edge="1">
          <mxGeometry relative="1" as="geometry" />
        </mxCell>
        <mxCell id="BhR9hD4-15x6Vp5-vJWZ-88" value="user insert image URL" style="html=1;strokeWidth=2;shape=manualInput;whiteSpace=wrap;rounded=1;size=26;arcSize=11;" parent="1" vertex="1">
          <mxGeometry x="956.5" y="880" width="150" height="80" as="geometry" />
        </mxCell>
        <mxCell id="BhR9hD4-15x6Vp5-vJWZ-96" style="edgeStyle=orthogonalEdgeStyle;rounded=0;orthogonalLoop=1;jettySize=auto;html=1;" parent="1" source="BhR9hD4-15x6Vp5-vJWZ-94" target="BhR9hD4-15x6Vp5-vJWZ-86" edge="1">
          <mxGeometry relative="1" as="geometry" />
        </mxCell>
        <mxCell id="BhR9hD4-15x6Vp5-vJWZ-322" style="edgeStyle=orthogonalEdgeStyle;rounded=0;orthogonalLoop=1;jettySize=auto;html=1;entryX=0.5;entryY=0;entryDx=0;entryDy=0;" parent="1" source="BhR9hD4-15x6Vp5-vJWZ-94" target="BhR9hD4-15x6Vp5-vJWZ-321" edge="1">
          <mxGeometry relative="1" as="geometry" />
        </mxCell>
        <mxCell id="BhR9hD4-15x6Vp5-vJWZ-94" value="" style="verticalLabelPosition=bottom;verticalAlign=top;html=1;shape=mxgraph.flowchart.on-page_reference;" parent="1" vertex="1">
          <mxGeometry x="580" y="220" width="40" height="40" as="geometry" />
        </mxCell>
        <mxCell id="BhR9hD4-15x6Vp5-vJWZ-95" style="edgeStyle=orthogonalEdgeStyle;rounded=0;orthogonalLoop=1;jettySize=auto;html=1;entryX=0.5;entryY=0;entryDx=0;entryDy=0;entryPerimeter=0;" parent="1" source="BhR9hD4-15x6Vp5-vJWZ-82" target="BhR9hD4-15x6Vp5-vJWZ-94" edge="1">
          <mxGeometry relative="1" as="geometry" />
        </mxCell>
        <mxCell id="BhR9hD4-15x6Vp5-vJWZ-97" value="Start" style="strokeWidth=2;html=1;shape=mxgraph.flowchart.start_2;whiteSpace=wrap;" parent="1" vertex="1">
          <mxGeometry x="550" y="-90" width="100" height="100" as="geometry" />
        </mxCell>
        <mxCell id="BhR9hD4-15x6Vp5-vJWZ-148" value="brand-zone" style="strokeWidth=2;html=1;shape=mxgraph.flowchart.database;whiteSpace=wrap;" parent="1" vertex="1">
          <mxGeometry x="1780" y="1342.87" width="80" height="90" as="geometry" />
        </mxCell>
        <mxCell id="BhR9hD4-15x6Vp5-vJWZ-162" value="" style="edgeStyle=orthogonalEdgeStyle;rounded=0;orthogonalLoop=1;jettySize=auto;html=1;" parent="1" source="BhR9hD4-15x6Vp5-vJWZ-153" target="BhR9hD4-15x6Vp5-vJWZ-161" edge="1">
          <mxGeometry relative="1" as="geometry" />
        </mxCell>
        <mxCell id="BhR9hD4-15x6Vp5-vJWZ-163" value="yes" style="edgeLabel;html=1;align=center;verticalAlign=middle;resizable=0;points=[];" parent="BhR9hD4-15x6Vp5-vJWZ-162" vertex="1" connectable="0">
          <mxGeometry x="-0.0108" y="3" relative="1" as="geometry">
            <mxPoint as="offset" />
          </mxGeometry>
        </mxCell>
        <mxCell id="BhR9hD4-15x6Vp5-vJWZ-180" style="edgeStyle=orthogonalEdgeStyle;rounded=0;orthogonalLoop=1;jettySize=auto;html=1;entryX=0;entryY=0.5;entryDx=0;entryDy=0;" parent="1" source="BhR9hD4-15x6Vp5-vJWZ-153" target="BhR9hD4-15x6Vp5-vJWZ-166" edge="1">
          <mxGeometry relative="1" as="geometry">
            <Array as="points">
              <mxPoint x="1546.5" y="742.5" />
            </Array>
          </mxGeometry>
        </mxCell>
        <mxCell id="BhR9hD4-15x6Vp5-vJWZ-181" value="no" style="edgeLabel;html=1;align=center;verticalAlign=middle;resizable=0;points=[];" parent="BhR9hD4-15x6Vp5-vJWZ-180" vertex="1" connectable="0">
          <mxGeometry x="-0.1" y="2" relative="1" as="geometry">
            <mxPoint as="offset" />
          </mxGeometry>
        </mxCell>
        <mxCell id="BhR9hD4-15x6Vp5-vJWZ-153" value="payload has groupId?" style="rhombus;whiteSpace=wrap;html=1;rounded=0;" parent="1" vertex="1">
          <mxGeometry x="1493.5" y="538.5" width="106" height="97" as="geometry" />
        </mxCell>
        <mxCell id="BhR9hD4-15x6Vp5-vJWZ-188" style="edgeStyle=orthogonalEdgeStyle;rounded=0;orthogonalLoop=1;jettySize=auto;html=1;entryX=0;entryY=0.5;entryDx=0;entryDy=0;" parent="1" source="BhR9hD4-15x6Vp5-vJWZ-161" target="BhR9hD4-15x6Vp5-vJWZ-186" edge="1">
          <mxGeometry relative="1" as="geometry">
            <Array as="points">
              <mxPoint x="1973.5" y="587" />
              <mxPoint x="1973.5" y="665" />
            </Array>
          </mxGeometry>
        </mxCell>
        <mxCell id="BhR9hD4-15x6Vp5-vJWZ-161" value="Filter visual references only by groupId" style="whiteSpace=wrap;html=1;rounded=0;" parent="1" vertex="1">
          <mxGeometry x="1777.5" y="557" width="120" height="60" as="geometry" />
        </mxCell>
        <mxCell id="BhR9hD4-15x6Vp5-vJWZ-169" value="" style="edgeStyle=orthogonalEdgeStyle;rounded=0;orthogonalLoop=1;jettySize=auto;html=1;" parent="1" source="BhR9hD4-15x6Vp5-vJWZ-166" target="BhR9hD4-15x6Vp5-vJWZ-168" edge="1">
          <mxGeometry relative="1" as="geometry" />
        </mxCell>
        <mxCell id="BhR9hD4-15x6Vp5-vJWZ-171" value="yes" style="edgeLabel;html=1;align=center;verticalAlign=middle;resizable=0;points=[];" parent="BhR9hD4-15x6Vp5-vJWZ-169" vertex="1" connectable="0">
          <mxGeometry x="0.0344" y="-2" relative="1" as="geometry">
            <mxPoint as="offset" />
          </mxGeometry>
        </mxCell>
        <mxCell id="BhR9hD4-15x6Vp5-vJWZ-166" value="payload has tags?" style="rhombus;whiteSpace=wrap;html=1;" parent="1" vertex="1">
          <mxGeometry x="1583.5" y="688" width="109" height="109" as="geometry" />
        </mxCell>
        <mxCell id="BhR9hD4-15x6Vp5-vJWZ-187" style="edgeStyle=orthogonalEdgeStyle;rounded=0;orthogonalLoop=1;jettySize=auto;html=1;entryX=0;entryY=0.5;entryDx=0;entryDy=0;" parent="1" source="BhR9hD4-15x6Vp5-vJWZ-168" target="BhR9hD4-15x6Vp5-vJWZ-186" edge="1">
          <mxGeometry relative="1" as="geometry">
            <Array as="points">
              <mxPoint x="1973.5" y="743" />
              <mxPoint x="1973.5" y="665" />
            </Array>
          </mxGeometry>
        </mxCell>
        <mxCell id="BhR9hD4-15x6Vp5-vJWZ-168" value="Filter visual references only by tags that contains" style="whiteSpace=wrap;html=1;rounded=0;" parent="1" vertex="1">
          <mxGeometry x="1773.5" y="712.5" width="120" height="60" as="geometry" />
        </mxCell>
        <mxCell id="BhR9hD4-15x6Vp5-vJWZ-183" value="" style="edgeStyle=orthogonalEdgeStyle;rounded=0;orthogonalLoop=1;jettySize=auto;html=1;" parent="1" source="BhR9hD4-15x6Vp5-vJWZ-174" target="BhR9hD4-15x6Vp5-vJWZ-182" edge="1">
          <mxGeometry relative="1" as="geometry" />
        </mxCell>
        <mxCell id="BhR9hD4-15x6Vp5-vJWZ-331" style="edgeStyle=orthogonalEdgeStyle;rounded=0;orthogonalLoop=1;jettySize=auto;html=1;entryX=0.5;entryY=0;entryDx=0;entryDy=0;" parent="1" source="BhR9hD4-15x6Vp5-vJWZ-174" target="BhR9hD4-15x6Vp5-vJWZ-269" edge="1">
          <mxGeometry relative="1" as="geometry" />
        </mxCell>
        <mxCell id="BhR9hD4-15x6Vp5-vJWZ-332" style="edgeStyle=orthogonalEdgeStyle;rounded=0;orthogonalLoop=1;jettySize=auto;html=1;" parent="1" source="BhR9hD4-15x6Vp5-vJWZ-174" target="BhR9hD4-15x6Vp5-vJWZ-271" edge="1">
          <mxGeometry relative="1" as="geometry" />
        </mxCell>
        <mxCell id="BhR9hD4-15x6Vp5-vJWZ-333" style="edgeStyle=orthogonalEdgeStyle;rounded=0;orthogonalLoop=1;jettySize=auto;html=1;entryX=0.5;entryY=0;entryDx=0;entryDy=0;" parent="1" source="BhR9hD4-15x6Vp5-vJWZ-174" target="BhR9hD4-15x6Vp5-vJWZ-277" edge="1">
          <mxGeometry relative="1" as="geometry" />
        </mxCell>
        <mxCell id="BhR9hD4-15x6Vp5-vJWZ-335" style="edgeStyle=orthogonalEdgeStyle;rounded=0;orthogonalLoop=1;jettySize=auto;html=1;entryX=0.5;entryY=0;entryDx=0;entryDy=0;" parent="1" source="BhR9hD4-15x6Vp5-vJWZ-174" target="BhR9hD4-15x6Vp5-vJWZ-297" edge="1">
          <mxGeometry relative="1" as="geometry">
            <Array as="points">
              <mxPoint x="93" y="587" />
            </Array>
          </mxGeometry>
        </mxCell>
        <mxCell id="BhR9hD4-15x6Vp5-vJWZ-174" value="getVisualReferences(payload)" style="whiteSpace=wrap;html=1;" parent="1" vertex="1">
          <mxGeometry x="941.5" y="557" width="182" height="60" as="geometry" />
        </mxCell>
        <mxCell id="BhR9hD4-15x6Vp5-vJWZ-185" style="edgeStyle=orthogonalEdgeStyle;rounded=0;orthogonalLoop=1;jettySize=auto;html=1;" parent="1" source="BhR9hD4-15x6Vp5-vJWZ-182" target="BhR9hD4-15x6Vp5-vJWZ-153" edge="1">
          <mxGeometry relative="1" as="geometry" />
        </mxCell>
        <mxCell id="BhR9hD4-15x6Vp5-vJWZ-365" style="edgeStyle=orthogonalEdgeStyle;rounded=0;orthogonalLoop=1;jettySize=auto;html=1;entryX=0;entryY=0.5;entryDx=0;entryDy=0;" parent="1" source="BhR9hD4-15x6Vp5-vJWZ-182" target="BhR9hD4-15x6Vp5-vJWZ-203" edge="1">
          <mxGeometry relative="1" as="geometry">
            <Array as="points">
              <mxPoint x="1330" y="896" />
            </Array>
          </mxGeometry>
        </mxCell>
        <mxCell id="BhR9hD4-15x6Vp5-vJWZ-182" value="get list of visual references" style="whiteSpace=wrap;html=1;" parent="1" vertex="1">
          <mxGeometry x="1205.5" y="557" width="182" height="60" as="geometry" />
        </mxCell>
        <mxCell id="BhR9hD4-15x6Vp5-vJWZ-190" value="" style="edgeStyle=orthogonalEdgeStyle;rounded=0;orthogonalLoop=1;jettySize=auto;html=1;" parent="1" source="BhR9hD4-15x6Vp5-vJWZ-186" target="BhR9hD4-15x6Vp5-vJWZ-189" edge="1">
          <mxGeometry relative="1" as="geometry" />
        </mxCell>
        <mxCell id="BhR9hD4-15x6Vp5-vJWZ-186" value="gets the first 10 (or by the quantity defined by the consumer)" style="rounded=0;whiteSpace=wrap;html=1;" parent="1" vertex="1">
          <mxGeometry x="2043.5" y="635.5" width="200" height="60" as="geometry" />
        </mxCell>
        <mxCell id="BhR9hD4-15x6Vp5-vJWZ-192" value="" style="edgeStyle=orthogonalEdgeStyle;rounded=0;orthogonalLoop=1;jettySize=auto;html=1;" parent="1" source="BhR9hD4-15x6Vp5-vJWZ-189" target="BhR9hD4-15x6Vp5-vJWZ-191" edge="1">
          <mxGeometry relative="1" as="geometry" />
        </mxCell>
        <mxCell id="BhR9hD4-15x6Vp5-vJWZ-189" value="iterates all contents and get tags of each visual reference" style="rounded=0;whiteSpace=wrap;html=1;" parent="1" vertex="1">
          <mxGeometry x="2283.5" y="635.5" width="200" height="60" as="geometry" />
        </mxCell>
        <mxCell id="BhR9hD4-15x6Vp5-vJWZ-206" value="" style="edgeStyle=orthogonalEdgeStyle;rounded=0;orthogonalLoop=1;jettySize=auto;html=1;" parent="1" source="BhR9hD4-15x6Vp5-vJWZ-191" target="BhR9hD4-15x6Vp5-vJWZ-205" edge="1">
          <mxGeometry relative="1" as="geometry" />
        </mxCell>
        <mxCell id="BhR9hD4-15x6Vp5-vJWZ-191" value="generates array with list of tags to filter" style="rounded=0;whiteSpace=wrap;html=1;" parent="1" vertex="1">
          <mxGeometry x="2513.5" y="635.5" width="200" height="60" as="geometry" />
        </mxCell>
        <mxCell id="BhR9hD4-15x6Vp5-vJWZ-201" style="edgeStyle=orthogonalEdgeStyle;rounded=0;orthogonalLoop=1;jettySize=auto;html=1;" parent="1" source="BhR9hD4-15x6Vp5-vJWZ-195" target="BhR9hD4-15x6Vp5-vJWZ-148" edge="1">
          <mxGeometry relative="1" as="geometry" />
        </mxCell>
        <mxCell id="BhR9hD4-15x6Vp5-vJWZ-366" value="" style="edgeStyle=orthogonalEdgeStyle;rounded=0;orthogonalLoop=1;jettySize=auto;html=1;" parent="1" source="BhR9hD4-15x6Vp5-vJWZ-195" target="BhR9hD4-15x6Vp5-vJWZ-203" edge="1">
          <mxGeometry relative="1" as="geometry" />
        </mxCell>
        <mxCell id="BhR9hD4-15x6Vp5-vJWZ-369" value="get all existent groups" style="edgeLabel;html=1;align=center;verticalAlign=middle;resizable=0;points=[];" parent="BhR9hD4-15x6Vp5-vJWZ-366" vertex="1" connectable="0">
          <mxGeometry x="0.3265" y="1" relative="1" as="geometry">
            <mxPoint as="offset" />
          </mxGeometry>
        </mxCell>
        <mxCell id="BhR9hD4-15x6Vp5-vJWZ-195" value="groups" style="strokeWidth=2;html=1;shape=mxgraph.flowchart.database;whiteSpace=wrap;" parent="1" vertex="1">
          <mxGeometry x="1780" y="1024.62" width="80" height="90" as="geometry" />
        </mxCell>
        <mxCell id="BhR9hD4-15x6Vp5-vJWZ-198" style="edgeStyle=orthogonalEdgeStyle;rounded=0;orthogonalLoop=1;jettySize=auto;html=1;" parent="1" source="BhR9hD4-15x6Vp5-vJWZ-196" target="BhR9hD4-15x6Vp5-vJWZ-195" edge="1">
          <mxGeometry relative="1" as="geometry" />
        </mxCell>
        <mxCell id="BhR9hD4-15x6Vp5-vJWZ-196" value="visual-references" style="strokeWidth=2;html=1;shape=mxgraph.flowchart.database;whiteSpace=wrap;" parent="1" vertex="1">
          <mxGeometry x="1410" y="1024.62" width="106" height="90" as="geometry" />
        </mxCell>
        <mxCell id="BhR9hD4-15x6Vp5-vJWZ-199" style="edgeStyle=orthogonalEdgeStyle;rounded=0;orthogonalLoop=1;jettySize=auto;html=1;" parent="1" source="BhR9hD4-15x6Vp5-vJWZ-197" target="BhR9hD4-15x6Vp5-vJWZ-195" edge="1">
          <mxGeometry relative="1" as="geometry" />
        </mxCell>
        <mxCell id="BhR9hD4-15x6Vp5-vJWZ-197" value="color-palettes" style="strokeWidth=2;html=1;shape=mxgraph.flowchart.database;whiteSpace=wrap;" parent="1" vertex="1">
          <mxGeometry x="2012" y="1149.62" width="106" height="90" as="geometry" />
        </mxCell>
        <mxCell id="BhR9hD4-15x6Vp5-vJWZ-200" style="edgeStyle=orthogonalEdgeStyle;rounded=0;orthogonalLoop=1;jettySize=auto;html=1;entryX=0;entryY=0.5;entryDx=0;entryDy=0;entryPerimeter=0;" parent="1" source="BhR9hD4-15x6Vp5-vJWZ-196" target="BhR9hD4-15x6Vp5-vJWZ-148" edge="1">
          <mxGeometry relative="1" as="geometry" />
        </mxCell>
        <mxCell id="BhR9hD4-15x6Vp5-vJWZ-202" style="edgeStyle=orthogonalEdgeStyle;rounded=0;orthogonalLoop=1;jettySize=auto;html=1;entryX=1;entryY=0.5;entryDx=0;entryDy=0;entryPerimeter=0;" parent="1" source="BhR9hD4-15x6Vp5-vJWZ-197" target="BhR9hD4-15x6Vp5-vJWZ-148" edge="1">
          <mxGeometry relative="1" as="geometry" />
        </mxCell>
        <mxCell id="BhR9hD4-15x6Vp5-vJWZ-367" style="edgeStyle=orthogonalEdgeStyle;rounded=0;orthogonalLoop=1;jettySize=auto;html=1;entryX=0.5;entryY=1;entryDx=0;entryDy=0;" parent="1" source="BhR9hD4-15x6Vp5-vJWZ-203" target="BhR9hD4-15x6Vp5-vJWZ-205" edge="1">
          <mxGeometry relative="1" as="geometry" />
        </mxCell>
        <mxCell id="BhR9hD4-15x6Vp5-vJWZ-203" value="get lists of groups" style="whiteSpace=wrap;html=1;" parent="1" vertex="1">
          <mxGeometry x="1729" y="870" width="182" height="60" as="geometry" />
        </mxCell>
        <mxCell id="BhR9hD4-15x6Vp5-vJWZ-205" value="generate payload" style="rounded=0;whiteSpace=wrap;html=1;" parent="1" vertex="1">
          <mxGeometry x="2793.5" y="635.5" width="200" height="60" as="geometry" />
        </mxCell>
        <mxCell id="BhR9hD4-15x6Vp5-vJWZ-337" style="edgeStyle=orthogonalEdgeStyle;rounded=0;orthogonalLoop=1;jettySize=auto;html=1;" parent="1" source="BhR9hD4-15x6Vp5-vJWZ-209" target="BhR9hD4-15x6Vp5-vJWZ-289" edge="1">
          <mxGeometry relative="1" as="geometry" />
        </mxCell>
        <mxCell id="BhR9hD4-15x6Vp5-vJWZ-338" value="create visual reference" style="edgeStyle=orthogonalEdgeStyle;rounded=0;orthogonalLoop=1;jettySize=auto;html=1;" parent="1" source="BhR9hD4-15x6Vp5-vJWZ-209" target="BhR9hD4-15x6Vp5-vJWZ-196" edge="1">
          <mxGeometry x="-0.4881" relative="1" as="geometry">
            <mxPoint as="offset" />
          </mxGeometry>
        </mxCell>
        <mxCell id="BhR9hD4-15x6Vp5-vJWZ-209" value="createVisualReference(payload)" style="whiteSpace=wrap;html=1;" parent="1" vertex="1">
          <mxGeometry x="954.5" y="1040" width="200" height="60" as="geometry" />
        </mxCell>
        <mxCell id="BhR9hD4-15x6Vp5-vJWZ-214" value="" style="edgeStyle=orthogonalEdgeStyle;rounded=0;orthogonalLoop=1;jettySize=auto;html=1;" parent="1" edge="1">
          <mxGeometry relative="1" as="geometry">
            <mxPoint x="1350.090909090909" y="1120" as="targetPoint" />
          </mxGeometry>
        </mxCell>
        <mxCell id="BhR9hD4-15x6Vp5-vJWZ-219" value="" style="edgeStyle=orthogonalEdgeStyle;rounded=0;orthogonalLoop=1;jettySize=auto;html=1;" parent="1" source="BhR9hD4-15x6Vp5-vJWZ-216" target="BhR9hD4-15x6Vp5-vJWZ-218" edge="1">
          <mxGeometry relative="1" as="geometry" />
        </mxCell>
        <mxCell id="BhR9hD4-15x6Vp5-vJWZ-216" value="updateVisualReference(id, payload)" style="whiteSpace=wrap;html=1;" parent="1" vertex="1">
          <mxGeometry x="-740" y="1576" width="170" height="60" as="geometry" />
        </mxCell>
        <mxCell id="BhR9hD4-15x6Vp5-vJWZ-221" value="" style="edgeStyle=orthogonalEdgeStyle;rounded=0;orthogonalLoop=1;jettySize=auto;html=1;" parent="1" source="BhR9hD4-15x6Vp5-vJWZ-218" target="BhR9hD4-15x6Vp5-vJWZ-220" edge="1">
          <mxGeometry relative="1" as="geometry" />
        </mxCell>
        <mxCell id="BhR9hD4-15x6Vp5-vJWZ-218" value="find visual reference" style="whiteSpace=wrap;html=1;" parent="1" vertex="1">
          <mxGeometry x="-965" y="1576" width="120" height="60" as="geometry" />
        </mxCell>
        <mxCell id="BhR9hD4-15x6Vp5-vJWZ-223" value="yes" style="edgeStyle=orthogonalEdgeStyle;rounded=0;orthogonalLoop=1;jettySize=auto;html=1;" parent="1" source="BhR9hD4-15x6Vp5-vJWZ-220" target="BhR9hD4-15x6Vp5-vJWZ-222" edge="1">
          <mxGeometry relative="1" as="geometry" />
        </mxCell>
        <mxCell id="BhR9hD4-15x6Vp5-vJWZ-226" value="" style="edgeStyle=orthogonalEdgeStyle;rounded=0;orthogonalLoop=1;jettySize=auto;html=1;" parent="1" source="BhR9hD4-15x6Vp5-vJWZ-220" target="BhR9hD4-15x6Vp5-vJWZ-225" edge="1">
          <mxGeometry relative="1" as="geometry" />
        </mxCell>
        <mxCell id="BhR9hD4-15x6Vp5-vJWZ-220" value="visual reference exists?" style="rhombus;whiteSpace=wrap;html=1;" parent="1" vertex="1">
          <mxGeometry x="-1145" y="1566" width="80" height="80" as="geometry" />
        </mxCell>
        <mxCell id="BhR9hD4-15x6Vp5-vJWZ-355" value="" style="edgeStyle=orthogonalEdgeStyle;rounded=0;orthogonalLoop=1;jettySize=auto;html=1;" parent="1" source="BhR9hD4-15x6Vp5-vJWZ-222" target="BhR9hD4-15x6Vp5-vJWZ-354" edge="1">
          <mxGeometry relative="1" as="geometry" />
        </mxCell>
        <mxCell id="BhR9hD4-15x6Vp5-vJWZ-222" value="update visual reference" style="whiteSpace=wrap;html=1;" parent="1" vertex="1">
          <mxGeometry x="-1390" y="1576" width="120" height="60" as="geometry" />
        </mxCell>
        <mxCell id="BhR9hD4-15x6Vp5-vJWZ-225" value="throws an error pointing that visual reference doesn&#39;t exist" style="whiteSpace=wrap;html=1;" parent="1" vertex="1">
          <mxGeometry x="-1172.5" y="1406" width="135" height="70" as="geometry" />
        </mxCell>
        <mxCell id="BhR9hD4-15x6Vp5-vJWZ-230" value="" style="edgeStyle=orthogonalEdgeStyle;rounded=0;orthogonalLoop=1;jettySize=auto;html=1;" parent="1" source="BhR9hD4-15x6Vp5-vJWZ-227" target="BhR9hD4-15x6Vp5-vJWZ-229" edge="1">
          <mxGeometry relative="1" as="geometry" />
        </mxCell>
        <mxCell id="BhR9hD4-15x6Vp5-vJWZ-227" value="deleteVisualReference(id)" style="whiteSpace=wrap;html=1;" parent="1" vertex="1">
          <mxGeometry x="972" y="1790" width="165" height="60" as="geometry" />
        </mxCell>
        <mxCell id="BhR9hD4-15x6Vp5-vJWZ-232" value="yes" style="edgeStyle=orthogonalEdgeStyle;rounded=0;orthogonalLoop=1;jettySize=auto;html=1;" parent="1" source="BhR9hD4-15x6Vp5-vJWZ-229" target="BhR9hD4-15x6Vp5-vJWZ-231" edge="1">
          <mxGeometry relative="1" as="geometry" />
        </mxCell>
        <mxCell id="BhR9hD4-15x6Vp5-vJWZ-234" value="no" style="edgeStyle=orthogonalEdgeStyle;rounded=0;orthogonalLoop=1;jettySize=auto;html=1;" parent="1" source="BhR9hD4-15x6Vp5-vJWZ-229" target="BhR9hD4-15x6Vp5-vJWZ-233" edge="1">
          <mxGeometry relative="1" as="geometry" />
        </mxCell>
        <mxCell id="BhR9hD4-15x6Vp5-vJWZ-229" value="visual reference exists?" style="rhombus;whiteSpace=wrap;html=1;" parent="1" vertex="1">
          <mxGeometry x="1014.5" y="1945.5" width="80" height="80" as="geometry" />
        </mxCell>
        <mxCell id="BhR9hD4-15x6Vp5-vJWZ-231" value="delete visual reference" style="whiteSpace=wrap;html=1;" parent="1" vertex="1">
          <mxGeometry x="892.5" y="2060" width="120" height="60" as="geometry" />
        </mxCell>
        <mxCell id="BhR9hD4-15x6Vp5-vJWZ-233" value="throws an error pointing that visual reference doesn&#39;t exists" style="whiteSpace=wrap;html=1;" parent="1" vertex="1">
          <mxGeometry x="1106.5" y="2060" width="120" height="60" as="geometry" />
        </mxCell>
        <mxCell id="BhR9hD4-15x6Vp5-vJWZ-260" value="" style="edgeStyle=orthogonalEdgeStyle;rounded=0;orthogonalLoop=1;jettySize=auto;html=1;" parent="1" source="BhR9hD4-15x6Vp5-vJWZ-243" target="BhR9hD4-15x6Vp5-vJWZ-255" edge="1">
          <mxGeometry relative="1" as="geometry" />
        </mxCell>
        <mxCell id="BhR9hD4-15x6Vp5-vJWZ-243" value="createVisualReferenceGroup(payload)" style="whiteSpace=wrap;html=1;" parent="1" vertex="1">
          <mxGeometry x="-295.88" y="1145.5" width="232.5" height="60" as="geometry" />
        </mxCell>
        <mxCell id="BhR9hD4-15x6Vp5-vJWZ-253" value="yes" style="edgeStyle=orthogonalEdgeStyle;rounded=0;orthogonalLoop=1;jettySize=auto;html=1;" parent="1" source="BhR9hD4-15x6Vp5-vJWZ-250" target="BhR9hD4-15x6Vp5-vJWZ-252" edge="1">
          <mxGeometry relative="1" as="geometry" />
        </mxCell>
        <mxCell id="BhR9hD4-15x6Vp5-vJWZ-250" value="payload has images?" style="rhombus;whiteSpace=wrap;html=1;" parent="1" vertex="1">
          <mxGeometry x="-429.62000000000023" y="1416" width="100" height="100" as="geometry" />
        </mxCell>
        <mxCell id="BhR9hD4-15x6Vp5-vJWZ-353" value="" style="edgeStyle=orthogonalEdgeStyle;rounded=0;orthogonalLoop=1;jettySize=auto;html=1;" parent="1" source="BhR9hD4-15x6Vp5-vJWZ-252" target="BhR9hD4-15x6Vp5-vJWZ-216" edge="1">
          <mxGeometry relative="1" as="geometry" />
        </mxCell>
        <mxCell id="BhR9hD4-15x6Vp5-vJWZ-252" value="call updateVisualReference(id) to add groupId to visual reference" style="whiteSpace=wrap;html=1;" parent="1" vertex="1">
          <mxGeometry x="-479.9999999999999" y="1576" width="200.75" height="60" as="geometry" />
        </mxCell>
        <mxCell id="BhR9hD4-15x6Vp5-vJWZ-351" value="" style="edgeStyle=orthogonalEdgeStyle;rounded=0;orthogonalLoop=1;jettySize=auto;html=1;" parent="1" source="BhR9hD4-15x6Vp5-vJWZ-255" target="BhR9hD4-15x6Vp5-vJWZ-349" edge="1">
          <mxGeometry relative="1" as="geometry" />
        </mxCell>
        <mxCell id="BhR9hD4-15x6Vp5-vJWZ-255" value="create visual reference group" style="whiteSpace=wrap;html=1;" parent="1" vertex="1">
          <mxGeometry x="-239.63" y="1265.5" width="120" height="60" as="geometry" />
        </mxCell>
        <mxCell id="BhR9hD4-15x6Vp5-vJWZ-269" value="render grid with visual references (if exists)" style="rounded=0;whiteSpace=wrap;html=1;" parent="1" vertex="1">
          <mxGeometry x="469.5" y="712.5" width="200" height="60" as="geometry" />
        </mxCell>
        <mxCell id="BhR9hD4-15x6Vp5-vJWZ-271" value="render tabs with created groups (if exists)" style="rounded=0;whiteSpace=wrap;html=1;" parent="1" vertex="1">
          <mxGeometry x="754.5" y="712.5" width="180" height="60" as="geometry" />
        </mxCell>
        <mxCell id="BhR9hD4-15x6Vp5-vJWZ-334" value="" style="edgeStyle=orthogonalEdgeStyle;rounded=0;orthogonalLoop=1;jettySize=auto;html=1;" parent="1" source="BhR9hD4-15x6Vp5-vJWZ-277" target="BhR9hD4-15x6Vp5-vJWZ-88" edge="1">
          <mxGeometry relative="1" as="geometry" />
        </mxCell>
        <mxCell id="ULhaOfNwI5lLK6dhQ9N3-3" value="onChange" style="edgeLabel;html=1;align=center;verticalAlign=middle;resizable=0;points=[];" vertex="1" connectable="0" parent="BhR9hD4-15x6Vp5-vJWZ-334">
          <mxGeometry x="-0.2327" y="-6" relative="1" as="geometry">
            <mxPoint x="1" as="offset" />
          </mxGeometry>
        </mxCell>
        <mxCell id="BhR9hD4-15x6Vp5-vJWZ-277" value="render input" style="whiteSpace=wrap;html=1;rounded=0;" parent="1" vertex="1">
          <mxGeometry x="972.5" y="712.5" width="120" height="60" as="geometry" />
        </mxCell>
        <mxCell id="BhR9hD4-15x6Vp5-vJWZ-284" value="" style="edgeStyle=orthogonalEdgeStyle;rounded=0;orthogonalLoop=1;jettySize=auto;html=1;" parent="1" source="BhR9hD4-15x6Vp5-vJWZ-280" target="BhR9hD4-15x6Vp5-vJWZ-283" edge="1">
          <mxGeometry relative="1" as="geometry" />
        </mxCell>
        <mxCell id="BhR9hD4-15x6Vp5-vJWZ-280" value="render modal with image preview, name, group, description and tags fields" style="whiteSpace=wrap;html=1;strokeWidth=2;rounded=1;arcSize=11;" parent="1" vertex="1">
          <mxGeometry x="488" y="1030" width="153" height="80" as="geometry" />
        </mxCell>
        <mxCell id="BhR9hD4-15x6Vp5-vJWZ-336" style="edgeStyle=orthogonalEdgeStyle;rounded=0;orthogonalLoop=1;jettySize=auto;html=1;entryX=0;entryY=0.5;entryDx=0;entryDy=0;" parent="1" source="BhR9hD4-15x6Vp5-vJWZ-283" target="BhR9hD4-15x6Vp5-vJWZ-209" edge="1">
          <mxGeometry relative="1" as="geometry" />
        </mxCell>
        <mxCell id="BhR9hD4-15x6Vp5-vJWZ-283" value="user clicks on &quot;Create Palette&quot; button" style="whiteSpace=wrap;html=1;strokeWidth=2;rounded=1;arcSize=11;" parent="1" vertex="1">
          <mxGeometry x="737.5" y="1040" width="147" height="60" as="geometry" />
        </mxCell>
        <mxCell id="BhR9hD4-15x6Vp5-vJWZ-310" value="" style="edgeStyle=orthogonalEdgeStyle;rounded=0;orthogonalLoop=1;jettySize=auto;html=1;" parent="1" source="BhR9hD4-15x6Vp5-vJWZ-287" target="BhR9hD4-15x6Vp5-vJWZ-291" edge="1">
          <mxGeometry relative="1" as="geometry" />
        </mxCell>
        <mxCell id="BhR9hD4-15x6Vp5-vJWZ-287" value="Closes modal" style="whiteSpace=wrap;html=1;strokeWidth=2;rounded=1;arcSize=11;" parent="1" vertex="1">
          <mxGeometry x="994.5" y="1340" width="120" height="60" as="geometry" />
        </mxCell>
        <mxCell id="BhR9hD4-15x6Vp5-vJWZ-294" value="no" style="edgeStyle=orthogonalEdgeStyle;rounded=0;orthogonalLoop=1;jettySize=auto;html=1;" parent="1" source="BhR9hD4-15x6Vp5-vJWZ-289" target="BhR9hD4-15x6Vp5-vJWZ-293" edge="1">
          <mxGeometry relative="1" as="geometry" />
        </mxCell>
        <mxCell id="BhR9hD4-15x6Vp5-vJWZ-309" value="yes" style="edgeStyle=orthogonalEdgeStyle;rounded=0;orthogonalLoop=1;jettySize=auto;html=1;" parent="1" source="BhR9hD4-15x6Vp5-vJWZ-289" target="BhR9hD4-15x6Vp5-vJWZ-287" edge="1">
          <mxGeometry relative="1" as="geometry" />
        </mxCell>
        <mxCell id="BhR9hD4-15x6Vp5-vJWZ-289" value="request has succeeded?" style="rhombus;whiteSpace=wrap;html=1;strokeWidth=2;rounded=1;arcSize=11;" parent="1" vertex="1">
          <mxGeometry x="998.5" y="1176.25" width="112" height="105" as="geometry" />
        </mxCell>
        <mxCell id="BhR9hD4-15x6Vp5-vJWZ-357" value="" style="edgeStyle=orthogonalEdgeStyle;rounded=0;orthogonalLoop=1;jettySize=auto;html=1;" parent="1" source="BhR9hD4-15x6Vp5-vJWZ-291" target="BhR9hD4-15x6Vp5-vJWZ-356" edge="1">
          <mxGeometry relative="1" as="geometry" />
        </mxCell>
        <mxCell id="BhR9hD4-15x6Vp5-vJWZ-359" value="" style="edgeStyle=orthogonalEdgeStyle;rounded=0;orthogonalLoop=1;jettySize=auto;html=1;" parent="1" source="BhR9hD4-15x6Vp5-vJWZ-291" target="BhR9hD4-15x6Vp5-vJWZ-358" edge="1">
          <mxGeometry relative="1" as="geometry" />
        </mxCell>
        <mxCell id="BhR9hD4-15x6Vp5-vJWZ-360" value="" style="edgeStyle=orthogonalEdgeStyle;rounded=0;orthogonalLoop=1;jettySize=auto;html=1;" parent="1" source="BhR9hD4-15x6Vp5-vJWZ-291" target="BhR9hD4-15x6Vp5-vJWZ-358" edge="1">
          <mxGeometry relative="1" as="geometry" />
        </mxCell>
        <mxCell id="BhR9hD4-15x6Vp5-vJWZ-362" value="" style="edgeStyle=orthogonalEdgeStyle;rounded=0;orthogonalLoop=1;jettySize=auto;html=1;" parent="1" source="BhR9hD4-15x6Vp5-vJWZ-291" target="BhR9hD4-15x6Vp5-vJWZ-361" edge="1">
          <mxGeometry relative="1" as="geometry" />
        </mxCell>
        <mxCell id="BhR9hD4-15x6Vp5-vJWZ-291" value="render image inside the visual reference grid" style="whiteSpace=wrap;html=1;strokeWidth=2;rounded=1;arcSize=11;" parent="1" vertex="1">
          <mxGeometry x="994.5" y="1500" width="120" height="60" as="geometry" />
        </mxCell>
        <mxCell id="BhR9hD4-15x6Vp5-vJWZ-311" style="edgeStyle=orthogonalEdgeStyle;rounded=0;orthogonalLoop=1;jettySize=auto;html=1;" parent="1" source="BhR9hD4-15x6Vp5-vJWZ-293" target="BhR9hD4-15x6Vp5-vJWZ-280" edge="1">
          <mxGeometry relative="1" as="geometry" />
        </mxCell>
        <mxCell id="BhR9hD4-15x6Vp5-vJWZ-293" value="render toast with message explaining whats wrong" style="whiteSpace=wrap;html=1;strokeWidth=2;rounded=1;arcSize=11;" parent="1" vertex="1">
          <mxGeometry x="751" y="1198.75" width="120" height="60" as="geometry" />
        </mxCell>
        <mxCell id="BhR9hD4-15x6Vp5-vJWZ-299" value="" style="edgeStyle=orthogonalEdgeStyle;rounded=0;orthogonalLoop=1;jettySize=auto;html=1;" parent="1" source="BhR9hD4-15x6Vp5-vJWZ-297" target="BhR9hD4-15x6Vp5-vJWZ-298" edge="1">
          <mxGeometry relative="1" as="geometry" />
        </mxCell>
        <mxCell id="BhR9hD4-15x6Vp5-vJWZ-300" value="on click" style="edgeLabel;html=1;align=center;verticalAlign=middle;resizable=0;points=[];" parent="BhR9hD4-15x6Vp5-vJWZ-299" vertex="1" connectable="0">
          <mxGeometry x="0.025" y="3" relative="1" as="geometry">
            <mxPoint as="offset" />
          </mxGeometry>
        </mxCell>
        <mxCell id="BhR9hD4-15x6Vp5-vJWZ-297" value="render visual reference group button" style="rounded=0;whiteSpace=wrap;html=1;" parent="1" vertex="1">
          <mxGeometry x="32.5" y="712.5" width="120" height="60" as="geometry" />
        </mxCell>
        <mxCell id="BhR9hD4-15x6Vp5-vJWZ-302" value="" style="edgeStyle=orthogonalEdgeStyle;rounded=0;orthogonalLoop=1;jettySize=auto;html=1;" parent="1" source="BhR9hD4-15x6Vp5-vJWZ-298" target="BhR9hD4-15x6Vp5-vJWZ-301" edge="1">
          <mxGeometry relative="1" as="geometry" />
        </mxCell>
        <mxCell id="BhR9hD4-15x6Vp5-vJWZ-298" value="Open modal to create visual reference group" style="rounded=0;whiteSpace=wrap;html=1;" parent="1" vertex="1">
          <mxGeometry x="20" y="865.5" width="149" height="60" as="geometry" />
        </mxCell>
        <mxCell id="BhR9hD4-15x6Vp5-vJWZ-304" value="" style="edgeStyle=orthogonalEdgeStyle;rounded=0;orthogonalLoop=1;jettySize=auto;html=1;" parent="1" source="BhR9hD4-15x6Vp5-vJWZ-301" target="BhR9hD4-15x6Vp5-vJWZ-303" edge="1">
          <mxGeometry relative="1" as="geometry" />
        </mxCell>
        <mxCell id="BhR9hD4-15x6Vp5-vJWZ-305" value="on click" style="edgeLabel;html=1;align=center;verticalAlign=middle;resizable=0;points=[];" parent="BhR9hD4-15x6Vp5-vJWZ-304" vertex="1" connectable="0">
          <mxGeometry x="-0.025" y="1" relative="1" as="geometry">
            <mxPoint as="offset" />
          </mxGeometry>
        </mxCell>
        <mxCell id="BhR9hD4-15x6Vp5-vJWZ-301" value="render input group name and action buttons" style="rounded=0;whiteSpace=wrap;html=1;" parent="1" vertex="1">
          <mxGeometry x="20" y="1005.5" width="149" height="60" as="geometry" />
        </mxCell>
        <mxCell id="BhR9hD4-15x6Vp5-vJWZ-307" value="" style="edgeStyle=orthogonalEdgeStyle;rounded=0;orthogonalLoop=1;jettySize=auto;html=1;" parent="1" source="BhR9hD4-15x6Vp5-vJWZ-303" target="BhR9hD4-15x6Vp5-vJWZ-306" edge="1">
          <mxGeometry relative="1" as="geometry" />
        </mxCell>
        <mxCell id="BhR9hD4-15x6Vp5-vJWZ-348" value="" style="edgeStyle=orthogonalEdgeStyle;rounded=0;orthogonalLoop=1;jettySize=auto;html=1;" parent="1" source="BhR9hD4-15x6Vp5-vJWZ-303" target="BhR9hD4-15x6Vp5-vJWZ-243" edge="1">
          <mxGeometry relative="1" as="geometry" />
        </mxCell>
        <mxCell id="BhR9hD4-15x6Vp5-vJWZ-303" value="&quot;Create group&quot; calls createVisualReferenceGroup" style="whiteSpace=wrap;html=1;rounded=0;" parent="1" vertex="1">
          <mxGeometry x="-2" y="1145.5" width="193" height="60" as="geometry" />
        </mxCell>
        <mxCell id="BhR9hD4-15x6Vp5-vJWZ-313" value="" style="edgeStyle=orthogonalEdgeStyle;rounded=0;orthogonalLoop=1;jettySize=auto;html=1;" parent="1" source="BhR9hD4-15x6Vp5-vJWZ-306" target="BhR9hD4-15x6Vp5-vJWZ-312" edge="1">
          <mxGeometry relative="1" as="geometry" />
        </mxCell>
        <mxCell id="BhR9hD4-15x6Vp5-vJWZ-314" value="yes" style="edgeLabel;html=1;align=center;verticalAlign=middle;resizable=0;points=[];" parent="BhR9hD4-15x6Vp5-vJWZ-313" vertex="1" connectable="0">
          <mxGeometry x="-0.0037" y="4" relative="1" as="geometry">
            <mxPoint as="offset" />
          </mxGeometry>
        </mxCell>
        <mxCell id="BhR9hD4-15x6Vp5-vJWZ-318" value="no" style="edgeStyle=orthogonalEdgeStyle;rounded=0;orthogonalLoop=1;jettySize=auto;html=1;" parent="1" source="BhR9hD4-15x6Vp5-vJWZ-306" target="BhR9hD4-15x6Vp5-vJWZ-317" edge="1">
          <mxGeometry relative="1" as="geometry" />
        </mxCell>
        <mxCell id="BhR9hD4-15x6Vp5-vJWZ-306" value="request has succeeded?" style="rhombus;whiteSpace=wrap;html=1;rounded=0;" parent="1" vertex="1">
          <mxGeometry x="36.5" y="1275.5" width="116" height="98" as="geometry" />
        </mxCell>
        <mxCell id="BhR9hD4-15x6Vp5-vJWZ-316" value="" style="edgeStyle=orthogonalEdgeStyle;rounded=0;orthogonalLoop=1;jettySize=auto;html=1;" parent="1" source="BhR9hD4-15x6Vp5-vJWZ-312" target="BhR9hD4-15x6Vp5-vJWZ-315" edge="1">
          <mxGeometry relative="1" as="geometry" />
        </mxCell>
        <mxCell id="BhR9hD4-15x6Vp5-vJWZ-312" value="Close modal" style="whiteSpace=wrap;html=1;rounded=0;" parent="1" vertex="1">
          <mxGeometry x="34.5" y="1472.5" width="120" height="60" as="geometry" />
        </mxCell>
        <mxCell id="BhR9hD4-15x6Vp5-vJWZ-315" value="render tabs with the new group created" style="whiteSpace=wrap;html=1;rounded=0;" parent="1" vertex="1">
          <mxGeometry x="34.5" y="1612.5" width="120" height="60" as="geometry" />
        </mxCell>
        <mxCell id="BhR9hD4-15x6Vp5-vJWZ-319" style="edgeStyle=orthogonalEdgeStyle;rounded=0;orthogonalLoop=1;jettySize=auto;html=1;entryX=1;entryY=0.5;entryDx=0;entryDy=0;" parent="1" source="BhR9hD4-15x6Vp5-vJWZ-317" target="BhR9hD4-15x6Vp5-vJWZ-298" edge="1">
          <mxGeometry relative="1" as="geometry" />
        </mxCell>
        <mxCell id="BhR9hD4-15x6Vp5-vJWZ-317" value="render toast with message explaining the error" style="whiteSpace=wrap;html=1;rounded=0;" parent="1" vertex="1">
          <mxGeometry x="304.5" y="865.5" width="120" height="60" as="geometry" />
        </mxCell>
        <mxCell id="BhR9hD4-15x6Vp5-vJWZ-324" value="" style="edgeStyle=orthogonalEdgeStyle;rounded=0;orthogonalLoop=1;jettySize=auto;html=1;" parent="1" source="BhR9hD4-15x6Vp5-vJWZ-321" target="BhR9hD4-15x6Vp5-vJWZ-323" edge="1">
          <mxGeometry relative="1" as="geometry" />
        </mxCell>
        <mxCell id="ULhaOfNwI5lLK6dhQ9N3-4" value="onLoad" style="edgeLabel;html=1;align=center;verticalAlign=middle;resizable=0;points=[];" vertex="1" connectable="0" parent="BhR9hD4-15x6Vp5-vJWZ-324">
          <mxGeometry x="-0.1156" y="3" relative="1" as="geometry">
            <mxPoint as="offset" />
          </mxGeometry>
        </mxCell>
        <mxCell id="BhR9hD4-15x6Vp5-vJWZ-321" value="color-palette-module" style="rounded=0;whiteSpace=wrap;html=1;" parent="1" vertex="1">
          <mxGeometry x="-345" y="260" width="180" height="60" as="geometry" />
        </mxCell>
        <mxCell id="BhR9hD4-15x6Vp5-vJWZ-327" value="" style="edgeStyle=orthogonalEdgeStyle;rounded=0;orthogonalLoop=1;jettySize=auto;html=1;" parent="1" source="BhR9hD4-15x6Vp5-vJWZ-323" target="BhR9hD4-15x6Vp5-vJWZ-326" edge="1">
          <mxGeometry relative="1" as="geometry" />
        </mxCell>
        <mxCell id="BhR9hD4-15x6Vp5-vJWZ-328" style="edgeStyle=orthogonalEdgeStyle;rounded=0;orthogonalLoop=1;jettySize=auto;html=1;" parent="1" source="BhR9hD4-15x6Vp5-vJWZ-323" target="BhR9hD4-15x6Vp5-vJWZ-325" edge="1">
          <mxGeometry relative="1" as="geometry" />
        </mxCell>
        <mxCell id="BhR9hD4-15x6Vp5-vJWZ-323" value="call getColorPalettes" style="rounded=0;whiteSpace=wrap;html=1;" parent="1" vertex="1">
          <mxGeometry x="-345" y="400" width="180" height="60" as="geometry" />
        </mxCell>
        <mxCell id="BhR9hD4-15x6Vp5-vJWZ-325" value="render grid with color palettes (if exists)" style="rounded=0;whiteSpace=wrap;html=1;" parent="1" vertex="1">
          <mxGeometry x="-630" y="540" width="200" height="60" as="geometry" />
        </mxCell>
        <mxCell id="BhR9hD4-15x6Vp5-vJWZ-326" value="render tabs with created groups (if exists)" style="rounded=0;whiteSpace=wrap;html=1;" parent="1" vertex="1">
          <mxGeometry x="-345" y="540" width="180" height="60" as="geometry" />
        </mxCell>
        <mxCell id="BhR9hD4-15x6Vp5-vJWZ-352" value="" style="edgeStyle=orthogonalEdgeStyle;rounded=0;orthogonalLoop=1;jettySize=auto;html=1;" parent="1" source="BhR9hD4-15x6Vp5-vJWZ-349" target="BhR9hD4-15x6Vp5-vJWZ-250" edge="1">
          <mxGeometry relative="1" as="geometry" />
        </mxCell>
        <mxCell id="BhR9hD4-15x6Vp5-vJWZ-349" value="groups" style="strokeWidth=2;html=1;shape=mxgraph.flowchart.database;whiteSpace=wrap;" parent="1" vertex="1">
          <mxGeometry x="-219.63" y="1420" width="80" height="90" as="geometry" />
        </mxCell>
        <mxCell id="BhR9hD4-15x6Vp5-vJWZ-354" value="visual-references" style="strokeWidth=2;html=1;shape=mxgraph.flowchart.database;whiteSpace=wrap;" parent="1" vertex="1">
          <mxGeometry x="-1560" y="1561" width="106" height="90" as="geometry" />
        </mxCell>
        <mxCell id="BhR9hD4-15x6Vp5-vJWZ-356" value="render drag button" style="whiteSpace=wrap;html=1;strokeWidth=2;rounded=1;arcSize=11;" parent="1" vertex="1">
          <mxGeometry x="790" y="1654" width="120" height="60" as="geometry" />
        </mxCell>
        <mxCell id="BhR9hD4-15x6Vp5-vJWZ-358" value="render checkbox" style="whiteSpace=wrap;html=1;strokeWidth=2;rounded=1;arcSize=11;" parent="1" vertex="1">
          <mxGeometry x="1170" y="1654" width="120" height="60" as="geometry" />
        </mxCell>
        <mxCell id="BhR9hD4-15x6Vp5-vJWZ-363" value="" style="edgeStyle=orthogonalEdgeStyle;rounded=0;orthogonalLoop=1;jettySize=auto;html=1;" parent="1" source="BhR9hD4-15x6Vp5-vJWZ-361" target="BhR9hD4-15x6Vp5-vJWZ-227" edge="1">
          <mxGeometry relative="1" as="geometry" />
        </mxCell>
        <mxCell id="ULhaOfNwI5lLK6dhQ9N3-1" value="onClick" style="edgeLabel;html=1;align=center;verticalAlign=middle;resizable=0;points=[];" vertex="1" connectable="0" parent="BhR9hD4-15x6Vp5-vJWZ-363">
          <mxGeometry x="-0.0428" y="1" relative="1" as="geometry">
            <mxPoint as="offset" />
          </mxGeometry>
        </mxCell>
        <mxCell id="BhR9hD4-15x6Vp5-vJWZ-361" value="render trash button" style="whiteSpace=wrap;html=1;strokeWidth=2;rounded=1;arcSize=11;" parent="1" vertex="1">
          <mxGeometry x="994.5" y="1654" width="120" height="60" as="geometry" />
        </mxCell>
        <mxCell id="BhR9hD4-15x6Vp5-vJWZ-364" style="edgeStyle=orthogonalEdgeStyle;rounded=0;orthogonalLoop=1;jettySize=auto;html=1;entryX=0;entryY=0.5;entryDx=0;entryDy=0;entryPerimeter=0;" parent="1" source="BhR9hD4-15x6Vp5-vJWZ-182" target="BhR9hD4-15x6Vp5-vJWZ-196" edge="1">
          <mxGeometry relative="1" as="geometry">
            <Array as="points">
              <mxPoint x="1290" y="1070" />
            </Array>
          </mxGeometry>
        </mxCell>
        <mxCell id="BhR9hD4-15x6Vp5-vJWZ-368" value="get all visual references" style="edgeLabel;html=1;align=center;verticalAlign=middle;resizable=0;points=[];" parent="BhR9hD4-15x6Vp5-vJWZ-364" vertex="1" connectable="0">
          <mxGeometry x="0.0367" y="3" relative="1" as="geometry">
            <mxPoint as="offset" />
          </mxGeometry>
        </mxCell>
      </root>
    </mxGraphModel>
  </diagram>
  <diagram id="nvN9m3mlehE1kCQdFqvr" name="Diagrama de Components">
    <mxGraphModel dx="995" dy="1709" grid="1" gridSize="10" guides="1" tooltips="1" connect="1" arrows="1" fold="1" page="1" pageScale="1" pageWidth="850" pageHeight="1100" math="0" shadow="0">
      <root>
        <mxCell id="0" />
        <mxCell id="1" parent="0" />
        <mxCell id="YczyxIQ4trT35cKekm0H-15" value="contexts" style="shape=folder;fontStyle=1;spacingTop=10;tabWidth=40;tabHeight=14;tabPosition=left;html=1;whiteSpace=wrap;" parent="1" vertex="1">
          <mxGeometry x="1650" y="620" width="70" height="50" as="geometry" />
        </mxCell>
        <mxCell id="YczyxIQ4trT35cKekm0H-18" value="" style="edgeStyle=orthogonalEdgeStyle;rounded=0;orthogonalLoop=1;jettySize=auto;html=1;" parent="1" source="YczyxIQ4trT35cKekm0H-16" target="YczyxIQ4trT35cKekm0H-15" edge="1">
          <mxGeometry relative="1" as="geometry" />
        </mxCell>
        <mxCell id="jncAVk6C4hZ26wRoMgTI-56" style="edgeStyle=orthogonalEdgeStyle;rounded=0;orthogonalLoop=1;jettySize=auto;html=1;entryX=1;entryY=0.5;entryDx=0;entryDy=0;" edge="1" parent="1" source="YczyxIQ4trT35cKekm0H-16" target="jncAVk6C4hZ26wRoMgTI-5">
          <mxGeometry relative="1" as="geometry" />
        </mxCell>
        <mxCell id="YczyxIQ4trT35cKekm0H-16" value="&lt;p style=&quot;margin:0px;margin-top:6px;text-align:center;&quot;&gt;&lt;b&gt;VisualReferenceContext&lt;/b&gt;&lt;/p&gt;&lt;div style=&quot;color: rgb(214, 214, 221); font-family: &amp;quot;JetBrains Mono&amp;quot;, Menlo, Monaco, &amp;quot;Courier New&amp;quot;, monospace; line-height: 22px; white-space: pre;&quot;&gt;&lt;div style=&quot;&quot;&gt;&lt;span style=&quot;background-color: rgb(255, 255, 255);&quot;&gt;&lt;span style=&quot;color: rgb(170, 155, 245);&quot;&gt;  references&lt;/span&gt;: &lt;span style=&quot;color: rgb(239, 176, 128);&quot;&gt;VisualReference&lt;/span&gt;[];&lt;/span&gt;&lt;/div&gt;&lt;div style=&quot;&quot;&gt;&lt;span style=&quot;background-color: rgb(255, 255, 255);&quot;&gt;  &lt;span style=&quot;color: rgb(170, 155, 245);&quot;&gt;groups&lt;/span&gt;: &lt;span style=&quot;color: rgb(239, 176, 128);&quot;&gt;Group&lt;/span&gt;[];&lt;/span&gt;&lt;/div&gt;&lt;div style=&quot;&quot;&gt;&lt;span style=&quot;background-color: rgb(255, 255, 255);&quot;&gt;  &lt;span style=&quot;color: rgb(239, 176, 128); font-weight: bold;&quot;&gt;addReference&lt;/span&gt;: (&lt;span style=&quot;font-style: italic;&quot;&gt;reference&lt;/span&gt;: &lt;span style=&quot;color: rgb(239, 176, 128);&quot;&gt;VisualReference&lt;/span&gt;) &lt;span style=&quot;color: rgb(130, 210, 206);&quot;&gt;=&amp;gt;&lt;/span&gt; &lt;span style=&quot;color: rgb(130, 210, 206);&quot;&gt;void&lt;/span&gt;;&lt;/span&gt;&lt;/div&gt;&lt;div style=&quot;&quot;&gt;&lt;span style=&quot;background-color: rgb(255, 255, 255);&quot;&gt;  &lt;span style=&quot;color: rgb(239, 176, 128); font-weight: bold;&quot;&gt;deleteReference&lt;/span&gt;: (&lt;span style=&quot;font-style: italic;&quot;&gt;id&lt;/span&gt;: &lt;span style=&quot;color: rgb(130, 210, 206);&quot;&gt;number&lt;/span&gt;) &lt;span style=&quot;color: rgb(130, 210, 206);&quot;&gt;=&amp;gt;&lt;/span&gt; &lt;span style=&quot;color: rgb(130, 210, 206);&quot;&gt;void&lt;/span&gt;;&lt;/span&gt;&lt;/div&gt;&lt;div style=&quot;&quot;&gt;&lt;span style=&quot;background-color: rgb(255, 255, 255);&quot;&gt;  &lt;span style=&quot;color: rgb(170, 155, 245);&quot;&gt;availableFilters&lt;/span&gt;: &lt;span style=&quot;color: rgb(130, 210, 206);&quot;&gt;string&lt;/span&gt;[];&lt;/span&gt;&lt;/div&gt;&lt;div style=&quot;&quot;&gt;&lt;span style=&quot;background-color: rgb(255, 255, 255);&quot;&gt;  &lt;span style=&quot;color: rgb(170, 155, 245);&quot;&gt;currentFilters&lt;/span&gt;: &lt;span style=&quot;color: rgb(239, 176, 128);&quot;&gt;CurrentFilters&lt;/span&gt;;&lt;/span&gt;&lt;/div&gt;&lt;div style=&quot;&quot;&gt;&lt;span style=&quot;background-color: rgb(255, 255, 255);&quot;&gt;  &lt;span style=&quot;color: rgb(239, 176, 128); font-weight: bold;&quot;&gt;updateReference&lt;/span&gt;: (&lt;span style=&quot;font-style: italic;&quot;&gt;id&lt;/span&gt;: &lt;span style=&quot;color: rgb(130, 210, 206);&quot;&gt;number&lt;/span&gt;, &lt;span style=&quot;font-style: italic;&quot;&gt;reference&lt;/span&gt;: &lt;span style=&quot;color: rgb(239, 176, 128);&quot;&gt;VisualReference&lt;/span&gt;) &lt;span style=&quot;color: rgb(130, 210, 206);&quot;&gt;=&amp;gt;&lt;/span&gt; &lt;span style=&quot;color: rgb(130, 210, 206);&quot;&gt;void&lt;/span&gt;;&lt;/span&gt;&lt;/div&gt;&lt;div style=&quot;&quot;&gt;&lt;span style=&quot;background-color: rgb(255, 255, 255);&quot;&gt;  &lt;span style=&quot;color: rgb(239, 176, 128); font-weight: bold;&quot;&gt;setCurrentFilters&lt;/span&gt;: (&lt;span style=&quot;font-style: italic;&quot;&gt;id&lt;/span&gt;: &lt;span style=&quot;color: rgb(239, 176, 128);&quot;&gt;CurrentFilters&lt;/span&gt;) &lt;span style=&quot;color: rgb(130, 210, 206);&quot;&gt;=&amp;gt;&lt;/span&gt; &lt;span style=&quot;color: rgb(130, 210, 206);&quot;&gt;void&lt;/span&gt;;&lt;/span&gt;&lt;/div&gt;&lt;div style=&quot;&quot;&gt;&lt;span style=&quot;background-color: rgb(255, 255, 255);&quot;&gt;  &lt;span style=&quot;color: rgb(239, 176, 128); font-weight: bold;&quot;&gt;createGroup&lt;/span&gt;: (&lt;span style=&quot;font-style: italic;&quot;&gt;newGroup&lt;/span&gt;: &lt;span style=&quot;color: rgb(239, 176, 128);&quot;&gt;Omit&lt;/span&gt;&amp;lt;&lt;span style=&quot;color: rgb(239, 176, 128);&quot;&gt;Group&lt;/span&gt;, &lt;span style=&quot;color: rgb(227, 148, 220);&quot;&gt;&quot;id&quot;&lt;/span&gt;&amp;gt;) &lt;span style=&quot;color: rgb(130, 210, 206);&quot;&gt;=&amp;gt;&lt;/span&gt; &lt;span style=&quot;color: rgb(130, 210, 206);&quot;&gt;void&lt;/span&gt;;&lt;/span&gt;&lt;/div&gt;&lt;div style=&quot;&quot;&gt;&lt;span style=&quot;background-color: rgb(255, 255, 255);&quot;&gt;  &lt;span style=&quot;color: rgb(239, 176, 128); font-weight: bold;&quot;&gt;deleteGroup&lt;/span&gt;: (&lt;span style=&quot;font-style: italic;&quot;&gt;id&lt;/span&gt;: &lt;span style=&quot;color: rgb(130, 210, 206);&quot;&gt;string&lt;/span&gt;) &lt;span style=&quot;color: rgb(130, 210, 206);&quot;&gt;=&amp;gt;&lt;/span&gt; &lt;span style=&quot;color: rgb(130, 210, 206);&quot;&gt;void&lt;/span&gt;;&lt;/span&gt;&lt;/div&gt;&lt;/div&gt;" style="align=left;overflow=fill;html=1;dropTarget=0;whiteSpace=wrap;" parent="1" vertex="1">
          <mxGeometry x="1820" y="305" width="520" height="260" as="geometry" />
        </mxCell>
        <mxCell id="YczyxIQ4trT35cKekm0H-17" value="" style="shape=component;jettyWidth=8;jettyHeight=4;" parent="YczyxIQ4trT35cKekm0H-16" vertex="1">
          <mxGeometry x="1" width="20" height="20" relative="1" as="geometry">
            <mxPoint x="-24" y="4" as="offset" />
          </mxGeometry>
        </mxCell>
        <mxCell id="YczyxIQ4trT35cKekm0H-21" style="edgeStyle=orthogonalEdgeStyle;rounded=0;orthogonalLoop=1;jettySize=auto;html=1;" parent="1" source="YczyxIQ4trT35cKekm0H-19" target="YczyxIQ4trT35cKekm0H-15" edge="1">
          <mxGeometry relative="1" as="geometry" />
        </mxCell>
        <mxCell id="jncAVk6C4hZ26wRoMgTI-57" style="edgeStyle=orthogonalEdgeStyle;rounded=0;orthogonalLoop=1;jettySize=auto;html=1;entryX=0.5;entryY=1;entryDx=0;entryDy=0;" edge="1" parent="1" source="YczyxIQ4trT35cKekm0H-19" target="jncAVk6C4hZ26wRoMgTI-7">
          <mxGeometry relative="1" as="geometry" />
        </mxCell>
        <mxCell id="YczyxIQ4trT35cKekm0H-19" value="&lt;p style=&quot;margin:0px;margin-top:6px;text-align:center;&quot;&gt;&lt;b&gt;ColorPalettesContext&lt;/b&gt;&lt;/p&gt;&lt;div style=&quot;color: rgb(214, 214, 221); font-family: &amp;quot;JetBrains Mono&amp;quot;, Menlo, Monaco, &amp;quot;Courier New&amp;quot;, monospace; line-height: 22px; white-space: pre;&quot;&gt;&lt;div style=&quot;&quot;&gt;&lt;span style=&quot;background-color: rgb(255, 255, 255);&quot;&gt;&lt;span style=&quot;color: rgb(170, 155, 245);&quot;&gt;  &lt;/span&gt;&lt;/span&gt;&lt;span style=&quot;background-color: light-dark(#ffffff, var(--ge-dark-color, #121212));&quot;&gt;&lt;span style=&quot;color: rgb(170, 155, 245);&quot;&gt;palettes&lt;/span&gt;&lt;span style=&quot;color: light-dark(rgb(214, 214, 221), rgb(52, 52, 58));&quot;&gt;: &lt;/span&gt;&lt;span style=&quot;color: rgb(239, 176, 128);&quot;&gt;ColorPalette&lt;/span&gt;&lt;span style=&quot;color: light-dark(rgb(214, 214, 221), rgb(52, 52, 58));&quot;&gt;[];&lt;/span&gt;&lt;/span&gt;&lt;/div&gt;&lt;div style=&quot;line-height: 22px;&quot;&gt;&lt;div style=&quot;&quot;&gt;&lt;span style=&quot;background-color: light-dark(#ffffff, var(--ge-dark-color, #121212));&quot;&gt;  &lt;span style=&quot;color: #efb080;font-weight: bold;&quot;&gt;setPalettes&lt;/span&gt;: &lt;span style=&quot;color: #efb080;&quot;&gt;React&lt;/span&gt;.&lt;span style=&quot;color: #efb080;&quot;&gt;Dispatch&lt;/span&gt;&amp;lt;&lt;span style=&quot;color: #efb080;&quot;&gt;SetStateAction&lt;/span&gt;&amp;lt;&lt;span style=&quot;color: #efb080;&quot;&gt;ColorPalette&lt;/span&gt;[]&amp;gt;&amp;gt;;&lt;/span&gt;&lt;/div&gt;&lt;div style=&quot;&quot;&gt;&lt;span style=&quot;background-color: light-dark(#ffffff, var(--ge-dark-color, #121212));&quot;&gt;  &lt;span style=&quot;color: #efb080;font-weight: bold;&quot;&gt;handlePaletteCreation&lt;/span&gt;: (&lt;span style=&quot;font-style: italic;&quot;&gt;palette&lt;/span&gt;: &lt;span style=&quot;color: #efb080;&quot;&gt;ColorPalette&lt;/span&gt;) &lt;span style=&quot;color: #82d2ce;&quot;&gt;=&amp;gt;&lt;/span&gt; &lt;span style=&quot;color: #82d2ce;&quot;&gt;void&lt;/span&gt;;&lt;/span&gt;&lt;/div&gt;&lt;div style=&quot;&quot;&gt;&lt;span style=&quot;background-color: light-dark(#ffffff, var(--ge-dark-color, #121212));&quot;&gt;  &lt;span style=&quot;color: #efb080;font-weight: bold;&quot;&gt;createGroup&lt;/span&gt;: (&lt;span style=&quot;font-style: italic;&quot;&gt;name&lt;/span&gt;: &lt;span style=&quot;color: #82d2ce;&quot;&gt;string&lt;/span&gt;) &lt;span style=&quot;color: #82d2ce;&quot;&gt;=&amp;gt;&lt;/span&gt; &lt;span style=&quot;color: #82d2ce;&quot;&gt;void&lt;/span&gt;;&lt;/span&gt;&lt;/div&gt;&lt;div style=&quot;&quot;&gt;&lt;span style=&quot;background-color: light-dark(#ffffff, var(--ge-dark-color, #121212));&quot;&gt;  &lt;span style=&quot;color: #aa9bf5;&quot;&gt;groups&lt;/span&gt;: &lt;span style=&quot;color: #efb080;&quot;&gt;Group&lt;/span&gt;[];&lt;/span&gt;&lt;/div&gt;&lt;div style=&quot;&quot;&gt;&lt;span style=&quot;background-color: light-dark(#ffffff, var(--ge-dark-color, #121212));&quot;&gt;  &lt;span style=&quot;color: #efb080;font-weight: bold;&quot;&gt;editColorPalette&lt;/span&gt;: (&lt;span style=&quot;font-style: italic;&quot;&gt;palette&lt;/span&gt;: &lt;span style=&quot;color: #efb080;&quot;&gt;ColorPalette&lt;/span&gt;) &lt;span style=&quot;color: #82d2ce;&quot;&gt;=&amp;gt;&lt;/span&gt; &lt;span style=&quot;color: #82d2ce;&quot;&gt;void&lt;/span&gt;;&lt;/span&gt;&lt;/div&gt;&lt;div style=&quot;&quot;&gt;&lt;span style=&quot;background-color: light-dark(#ffffff, var(--ge-dark-color, #121212));&quot;&gt;  &lt;span style=&quot;color: #aa9bf5;&quot;&gt;availableFilters&lt;/span&gt;: &lt;span style=&quot;color: #82d2ce;&quot;&gt;string&lt;/span&gt;[];&lt;/span&gt;&lt;/div&gt;&lt;div style=&quot;&quot;&gt;&lt;span style=&quot;background-color: light-dark(#ffffff, var(--ge-dark-color, #121212));&quot;&gt;  &lt;span style=&quot;color: #aa9bf5;&quot;&gt;currentFilters&lt;/span&gt;: &lt;span style=&quot;color: #efb080;&quot;&gt;CurrentFilters&lt;/span&gt;;&lt;/span&gt;&lt;/div&gt;&lt;div style=&quot;&quot;&gt;&lt;span style=&quot;background-color: light-dark(#ffffff, var(--ge-dark-color, #121212));&quot;&gt;  &lt;span style=&quot;color: #efb080;font-weight: bold;&quot;&gt;setCurrentFilters&lt;/span&gt;: (&lt;span style=&quot;font-style: italic;&quot;&gt;filters&lt;/span&gt;: &lt;span style=&quot;color: #efb080;&quot;&gt;CurrentFilters&lt;/span&gt;) &lt;span style=&quot;color: #82d2ce;&quot;&gt;=&amp;gt;&lt;/span&gt; &lt;span style=&quot;color: #82d2ce;&quot;&gt;void&lt;/span&gt;;&lt;/span&gt;&lt;/div&gt;&lt;div style=&quot;&quot;&gt;&lt;span style=&quot;background-color: light-dark(#ffffff, var(--ge-dark-color, #121212));&quot;&gt;  &lt;span style=&quot;color: #efb080;font-weight: bold;&quot;&gt;deleteGroup&lt;/span&gt;: (&lt;span style=&quot;font-style: italic;&quot;&gt;id&lt;/span&gt;: &lt;span style=&quot;color: #82d2ce;&quot;&gt;string&lt;/span&gt;) &lt;span style=&quot;color: #82d2ce;&quot;&gt;=&amp;gt;&lt;/span&gt; &lt;span style=&quot;color: #82d2ce;&quot;&gt;void&lt;/span&gt;;&lt;/span&gt;&lt;/div&gt;&lt;div style=&quot;&quot;&gt;&lt;span style=&quot;background-color: light-dark(#ffffff, var(--ge-dark-color, #121212));&quot;&gt;  &lt;span style=&quot;color: rgb(239, 176, 128); font-weight: bold;&quot;&gt;deleteColorPalette&lt;/span&gt;: (&lt;span style=&quot;font-style: italic;&quot;&gt;id&lt;/span&gt;: &lt;span style=&quot;color: rgb(130, 210, 206);&quot;&gt;number&lt;/span&gt;) &lt;span style=&quot;color: rgb(130, 210, 206);&quot;&gt;=&amp;gt;&lt;/span&gt; &lt;span style=&quot;color: rgb(130, 210, 206);&quot;&gt;void&lt;/span&gt;;&lt;/span&gt;&lt;/div&gt;&lt;/div&gt;&lt;/div&gt;" style="align=left;overflow=fill;html=1;dropTarget=0;whiteSpace=wrap;" parent="1" vertex="1">
          <mxGeometry x="1820" y="790" width="520" height="290" as="geometry" />
        </mxCell>
        <mxCell id="YczyxIQ4trT35cKekm0H-20" value="" style="shape=component;jettyWidth=8;jettyHeight=4;" parent="YczyxIQ4trT35cKekm0H-19" vertex="1">
          <mxGeometry x="1" width="20" height="20" relative="1" as="geometry">
            <mxPoint x="-24" y="4" as="offset" />
          </mxGeometry>
        </mxCell>
        <mxCell id="jncAVk6C4hZ26wRoMgTI-2" value="" style="edgeStyle=orthogonalEdgeStyle;rounded=0;orthogonalLoop=1;jettySize=auto;html=1;" edge="1" parent="1" source="YczyxIQ4trT35cKekm0H-29" target="jncAVk6C4hZ26wRoMgTI-1">
          <mxGeometry relative="1" as="geometry" />
        </mxCell>
        <mxCell id="YczyxIQ4trT35cKekm0H-29" value="&lt;p style=&quot;margin:0px;margin-top:6px;text-align:center;&quot;&gt;&lt;b&gt;Tools&lt;/b&gt;&lt;/p&gt;&lt;hr size=&quot;1&quot; style=&quot;border-style:solid;&quot;&gt;&lt;p style=&quot;margin:0px;margin-left:8px;&quot;&gt;- Root&lt;/p&gt;&lt;p style=&quot;margin:0px;margin-left:8px;&quot;&gt;&lt;span style=&quot;white-space: pre;&quot;&gt;&#x9;&lt;/span&gt;+ onInputChange: (value: string) =&amp;gt; void&lt;/p&gt;&lt;p style=&quot;margin:0px;margin-left:8px;&quot;&gt;- AddItemModal&lt;/p&gt;&lt;p style=&quot;margin:0px;margin-left:8px;&quot;&gt;&lt;span style=&quot;white-space: pre;&quot;&gt;&#x9;&lt;/span&gt;+&amp;nbsp;trigger: React.ReactNode&lt;/p&gt;&lt;p style=&quot;margin:0px;margin-left:8px;&quot;&gt;&lt;span style=&quot;white-space: pre;&quot;&gt;&#x9;&lt;/span&gt;+&amp;nbsp;groups: string[]&lt;/p&gt;&lt;p style=&quot;margin:0px;margin-left:8px;&quot;&gt;&lt;span style=&quot;white-space: pre;&quot;&gt;&#x9;&lt;/span&gt;+&amp;nbsp;onTriggerClick: () =&amp;gt; void&lt;/p&gt;&lt;p style=&quot;margin:0px;margin-left:8px;&quot;&gt;&lt;span style=&quot;white-space: pre;&quot;&gt;&#x9;&lt;/span&gt;+ onActionClick: (reference: VisualReference) =&amp;gt; void&lt;br&gt;- Utilities&lt;/p&gt;&lt;p style=&quot;margin:0px;margin-left:8px;&quot;&gt;&lt;span style=&quot;white-space: pre;&quot;&gt;&#x9;&lt;/span&gt;+ onFiltersClick: () =&amp;gt; void&lt;/p&gt;&lt;p style=&quot;margin:0px;margin-left:8px;&quot;&gt;&lt;span style=&quot;white-space: pre;&quot;&gt;&#x9;&lt;/span&gt;+ isFiltersDisabled: boolean&lt;br&gt;&lt;/p&gt;&lt;p style=&quot;margin:0px;margin-left:8px;&quot;&gt;- Filters&lt;/p&gt;&lt;p style=&quot;margin:0px;margin-left:8px;&quot;&gt;&lt;span style=&quot;white-space: pre;&quot;&gt;&#x9;&lt;/span&gt;+ isOpen: boolean&lt;br&gt;&lt;/p&gt;&lt;p style=&quot;margin:0px;margin-left:8px;&quot;&gt;&lt;span style=&quot;white-space: pre;&quot;&gt;&#x9;&lt;/span&gt;+ availableFilters: string[]&lt;br&gt;&lt;/p&gt;&lt;p style=&quot;margin:0px;margin-left:8px;&quot;&gt;&lt;span style=&quot;white-space: pre;&quot;&gt;&#x9;&lt;/span&gt;+ currentFilters: {&lt;/p&gt;&lt;p style=&quot;margin:0px;margin-left:8px;&quot;&gt;&lt;span style=&quot;white-space: pre;&quot;&gt;&lt;span style=&quot;white-space: pre;&quot;&gt;&#x9;&lt;span style=&quot;white-space: pre;&quot;&gt;&#x9;&lt;/span&gt;search: string,&lt;/span&gt;&lt;/span&gt;&lt;/p&gt;&lt;p style=&quot;margin:0px;margin-left:8px;&quot;&gt;&lt;span style=&quot;white-space: pre;&quot;&gt;&lt;span style=&quot;white-space: pre;&quot;&gt;&#x9;&lt;/span&gt;&lt;span style=&quot;white-space: pre;&quot;&gt;&#x9;&lt;/span&gt;tags: string[]&lt;br&gt;&lt;/span&gt;&lt;/p&gt;&lt;p style=&quot;margin:0px;margin-left:8px;&quot;&gt;&lt;span style=&quot;white-space: pre;&quot;&gt;&#x9;&lt;/span&gt;}&lt;br&gt;&lt;/p&gt;" style="align=left;overflow=fill;html=1;dropTarget=0;whiteSpace=wrap;" parent="1" vertex="1">
          <mxGeometry x="1310" y="-20" width="360" height="290" as="geometry" />
        </mxCell>
        <mxCell id="YczyxIQ4trT35cKekm0H-30" value="" style="shape=component;jettyWidth=8;jettyHeight=4;" parent="YczyxIQ4trT35cKekm0H-29" vertex="1">
          <mxGeometry x="1" width="20" height="20" relative="1" as="geometry">
            <mxPoint x="-24" y="4" as="offset" />
          </mxGeometry>
        </mxCell>
        <mxCell id="jncAVk6C4hZ26wRoMgTI-43" style="edgeStyle=orthogonalEdgeStyle;rounded=0;orthogonalLoop=1;jettySize=auto;html=1;" edge="1" parent="1" source="jncAVk6C4hZ26wRoMgTI-1" target="jncAVk6C4hZ26wRoMgTI-11">
          <mxGeometry relative="1" as="geometry" />
        </mxCell>
        <mxCell id="jncAVk6C4hZ26wRoMgTI-1" value="components" style="shape=folder;fontStyle=1;spacingTop=10;tabWidth=40;tabHeight=14;tabPosition=left;html=1;whiteSpace=wrap;" vertex="1" parent="1">
          <mxGeometry x="1106.25" y="100" width="80" height="50" as="geometry" />
        </mxCell>
        <mxCell id="jncAVk6C4hZ26wRoMgTI-4" value="UI" style="shape=folder;fontStyle=1;spacingTop=10;tabWidth=40;tabHeight=14;tabPosition=left;html=1;whiteSpace=wrap;" vertex="1" parent="1">
          <mxGeometry x="1078.75" y="720" width="70" height="50" as="geometry" />
        </mxCell>
        <mxCell id="jncAVk6C4hZ26wRoMgTI-6" value="" style="edgeStyle=orthogonalEdgeStyle;rounded=0;orthogonalLoop=1;jettySize=auto;html=1;entryX=0;entryY=0;entryDx=40;entryDy=0;entryPerimeter=0;" edge="1" parent="1" source="jncAVk6C4hZ26wRoMgTI-5" target="jncAVk6C4hZ26wRoMgTI-4">
          <mxGeometry relative="1" as="geometry" />
        </mxCell>
        <mxCell id="jncAVk6C4hZ26wRoMgTI-5" value="VisualReferenceScreen" style="shape=module;align=left;spacingLeft=20;align=center;verticalAlign=top;whiteSpace=wrap;html=1;" vertex="1" parent="1">
          <mxGeometry x="1186.25" y="620" width="175" height="50" as="geometry" />
        </mxCell>
        <mxCell id="jncAVk6C4hZ26wRoMgTI-7" value="ColorPaletteScreen" style="shape=module;align=left;spacingLeft=20;align=center;verticalAlign=top;whiteSpace=wrap;html=1;" vertex="1" parent="1">
          <mxGeometry x="861.25" y="620" width="175" height="50" as="geometry" />
        </mxCell>
        <mxCell id="jncAVk6C4hZ26wRoMgTI-8" style="edgeStyle=orthogonalEdgeStyle;rounded=0;orthogonalLoop=1;jettySize=auto;html=1;entryX=0;entryY=0;entryDx=40;entryDy=0;entryPerimeter=0;" edge="1" parent="1" source="jncAVk6C4hZ26wRoMgTI-7" target="jncAVk6C4hZ26wRoMgTI-4">
          <mxGeometry relative="1" as="geometry" />
        </mxCell>
        <mxCell id="jncAVk6C4hZ26wRoMgTI-9" value="&lt;p style=&quot;margin:0px;margin-top:6px;text-align:center;&quot;&gt;&lt;b&gt;Grid&lt;/b&gt;&lt;/p&gt;&lt;hr size=&quot;1&quot; style=&quot;border-style:solid;&quot;&gt;&lt;p style=&quot;margin:0px;margin-left:8px;&quot;&gt;&lt;br&gt;&lt;/p&gt;" style="align=left;overflow=fill;html=1;dropTarget=0;whiteSpace=wrap;" vertex="1" parent="1">
          <mxGeometry x="760" y="400" width="160" height="80" as="geometry" />
        </mxCell>
        <mxCell id="jncAVk6C4hZ26wRoMgTI-10" value="" style="shape=component;jettyWidth=8;jettyHeight=4;" vertex="1" parent="jncAVk6C4hZ26wRoMgTI-9">
          <mxGeometry x="1" width="20" height="20" relative="1" as="geometry">
            <mxPoint x="-24" y="4" as="offset" />
          </mxGeometry>
        </mxCell>
        <mxCell id="jncAVk6C4hZ26wRoMgTI-11" value="&lt;p style=&quot;margin:0px;margin-top:6px;text-align:center;&quot;&gt;&lt;b&gt;Header&lt;/b&gt;&lt;/p&gt;&lt;hr size=&quot;1&quot; style=&quot;border-style:solid;&quot;&gt;&lt;p style=&quot;margin:0px;margin-left:8px;&quot;&gt;&lt;br&gt;&lt;/p&gt;" style="align=left;overflow=fill;html=1;dropTarget=0;whiteSpace=wrap;" vertex="1" parent="1">
          <mxGeometry x="943" y="400" width="160" height="80" as="geometry" />
        </mxCell>
        <mxCell id="jncAVk6C4hZ26wRoMgTI-12" value="" style="shape=component;jettyWidth=8;jettyHeight=4;" vertex="1" parent="jncAVk6C4hZ26wRoMgTI-11">
          <mxGeometry x="1" width="20" height="20" relative="1" as="geometry">
            <mxPoint x="-24" y="4" as="offset" />
          </mxGeometry>
        </mxCell>
        <mxCell id="jncAVk6C4hZ26wRoMgTI-13" value="&lt;p style=&quot;margin:0px;margin-top:6px;text-align:center;&quot;&gt;&lt;b&gt;Filters&lt;/b&gt;&lt;/p&gt;&lt;hr size=&quot;1&quot; style=&quot;border-style:solid;&quot;&gt;&lt;p style=&quot;margin:0px;margin-left:8px;&quot;&gt;&lt;br&gt;&lt;/p&gt;" style="align=left;overflow=fill;html=1;dropTarget=0;whiteSpace=wrap;" vertex="1" parent="1">
          <mxGeometry x="1140" y="400" width="160" height="80" as="geometry" />
        </mxCell>
        <mxCell id="jncAVk6C4hZ26wRoMgTI-14" value="" style="shape=component;jettyWidth=8;jettyHeight=4;" vertex="1" parent="jncAVk6C4hZ26wRoMgTI-13">
          <mxGeometry x="1" width="20" height="20" relative="1" as="geometry">
            <mxPoint x="-24" y="4" as="offset" />
          </mxGeometry>
        </mxCell>
        <mxCell id="jncAVk6C4hZ26wRoMgTI-15" value="&lt;p style=&quot;margin:0px;margin-top:6px;text-align:center;&quot;&gt;&lt;b&gt;Modal&lt;/b&gt;&lt;/p&gt;&lt;hr size=&quot;1&quot; style=&quot;border-style:solid;&quot;&gt;&lt;p style=&quot;margin:0px;margin-left:8px;&quot;&gt;&lt;br&gt;&lt;/p&gt;" style="align=left;overflow=fill;html=1;dropTarget=0;whiteSpace=wrap;" vertex="1" parent="1">
          <mxGeometry x="1342.5" y="400" width="160" height="80" as="geometry" />
        </mxCell>
        <mxCell id="jncAVk6C4hZ26wRoMgTI-16" value="" style="shape=component;jettyWidth=8;jettyHeight=4;" vertex="1" parent="jncAVk6C4hZ26wRoMgTI-15">
          <mxGeometry x="1" width="20" height="20" relative="1" as="geometry">
            <mxPoint x="-24" y="4" as="offset" />
          </mxGeometry>
        </mxCell>
        <mxCell id="jncAVk6C4hZ26wRoMgTI-23" style="edgeStyle=orthogonalEdgeStyle;rounded=0;orthogonalLoop=1;jettySize=auto;html=1;" edge="1" parent="1" source="jncAVk6C4hZ26wRoMgTI-17" target="jncAVk6C4hZ26wRoMgTI-7">
          <mxGeometry relative="1" as="geometry">
            <Array as="points">
              <mxPoint x="1114.25" y="590" />
              <mxPoint x="949.25" y="590" />
            </Array>
          </mxGeometry>
        </mxCell>
        <mxCell id="jncAVk6C4hZ26wRoMgTI-24" style="edgeStyle=orthogonalEdgeStyle;rounded=0;orthogonalLoop=1;jettySize=auto;html=1;" edge="1" parent="1" source="jncAVk6C4hZ26wRoMgTI-17" target="jncAVk6C4hZ26wRoMgTI-5">
          <mxGeometry relative="1" as="geometry">
            <Array as="points">
              <mxPoint x="1114.25" y="590" />
              <mxPoint x="1274.25" y="590" />
            </Array>
          </mxGeometry>
        </mxCell>
        <mxCell id="jncAVk6C4hZ26wRoMgTI-17" value="base-ui" style="shape=folder;fontStyle=1;spacingTop=10;tabWidth=40;tabHeight=14;tabPosition=left;html=1;whiteSpace=wrap;" vertex="1" parent="1">
          <mxGeometry x="1078.75" y="520" width="70" height="50" as="geometry" />
        </mxCell>
        <mxCell id="jncAVk6C4hZ26wRoMgTI-19" style="edgeStyle=orthogonalEdgeStyle;rounded=0;orthogonalLoop=1;jettySize=auto;html=1;entryX=0;entryY=0;entryDx=0;entryDy=32;entryPerimeter=0;" edge="1" parent="1" source="jncAVk6C4hZ26wRoMgTI-9" target="jncAVk6C4hZ26wRoMgTI-17">
          <mxGeometry relative="1" as="geometry">
            <Array as="points">
              <mxPoint x="846.25" y="552" />
            </Array>
          </mxGeometry>
        </mxCell>
        <mxCell id="jncAVk6C4hZ26wRoMgTI-20" style="edgeStyle=orthogonalEdgeStyle;rounded=0;orthogonalLoop=1;jettySize=auto;html=1;entryX=0;entryY=0;entryDx=0;entryDy=32;entryPerimeter=0;" edge="1" parent="1" source="jncAVk6C4hZ26wRoMgTI-11" target="jncAVk6C4hZ26wRoMgTI-17">
          <mxGeometry relative="1" as="geometry" />
        </mxCell>
        <mxCell id="jncAVk6C4hZ26wRoMgTI-21" style="edgeStyle=orthogonalEdgeStyle;rounded=0;orthogonalLoop=1;jettySize=auto;html=1;entryX=0;entryY=0;entryDx=70;entryDy=32;entryPerimeter=0;" edge="1" parent="1" source="jncAVk6C4hZ26wRoMgTI-13" target="jncAVk6C4hZ26wRoMgTI-17">
          <mxGeometry relative="1" as="geometry" />
        </mxCell>
        <mxCell id="jncAVk6C4hZ26wRoMgTI-22" style="edgeStyle=orthogonalEdgeStyle;rounded=0;orthogonalLoop=1;jettySize=auto;html=1;entryX=0;entryY=0;entryDx=70;entryDy=32;entryPerimeter=0;" edge="1" parent="1" source="jncAVk6C4hZ26wRoMgTI-15" target="jncAVk6C4hZ26wRoMgTI-17">
          <mxGeometry relative="1" as="geometry">
            <Array as="points">
              <mxPoint x="1422.25" y="552" />
            </Array>
          </mxGeometry>
        </mxCell>
        <mxCell id="jncAVk6C4hZ26wRoMgTI-41" style="edgeStyle=orthogonalEdgeStyle;rounded=0;orthogonalLoop=1;jettySize=auto;html=1;" edge="1" parent="1" source="jncAVk6C4hZ26wRoMgTI-26" target="jncAVk6C4hZ26wRoMgTI-9">
          <mxGeometry relative="1" as="geometry" />
        </mxCell>
        <mxCell id="jncAVk6C4hZ26wRoMgTI-26" value="colorPallete" style="shape=folder;fontStyle=1;spacingTop=10;tabWidth=40;tabHeight=14;tabPosition=left;html=1;whiteSpace=wrap;" vertex="1" parent="1">
          <mxGeometry x="400" y="455" width="90" height="50" as="geometry" />
        </mxCell>
        <mxCell id="jncAVk6C4hZ26wRoMgTI-42" style="edgeStyle=orthogonalEdgeStyle;rounded=0;orthogonalLoop=1;jettySize=auto;html=1;entryX=0;entryY=0.5;entryDx=0;entryDy=0;" edge="1" parent="1" source="jncAVk6C4hZ26wRoMgTI-27" target="jncAVk6C4hZ26wRoMgTI-9">
          <mxGeometry relative="1" as="geometry" />
        </mxCell>
        <mxCell id="jncAVk6C4hZ26wRoMgTI-27" value="visualReference" style="shape=folder;fontStyle=1;spacingTop=10;tabWidth=40;tabHeight=14;tabPosition=left;html=1;whiteSpace=wrap;" vertex="1" parent="1">
          <mxGeometry x="370" y="305" width="120" height="50" as="geometry" />
        </mxCell>
        <mxCell id="jncAVk6C4hZ26wRoMgTI-30" value="" style="edgeStyle=orthogonalEdgeStyle;rounded=0;orthogonalLoop=1;jettySize=auto;html=1;" edge="1" parent="1" source="jncAVk6C4hZ26wRoMgTI-28" target="jncAVk6C4hZ26wRoMgTI-27">
          <mxGeometry relative="1" as="geometry" />
        </mxCell>
        <mxCell id="jncAVk6C4hZ26wRoMgTI-28" value="&lt;p style=&quot;margin:0px;margin-top:6px;text-align:center;&quot;&gt;&lt;b&gt;Reference&lt;/b&gt;&lt;/p&gt;&lt;hr size=&quot;1&quot; style=&quot;border-style:solid;&quot;&gt;&lt;p style=&quot;margin:0px;margin-left:8px;&quot;&gt;+ name: string&lt;br&gt;+ description: string&lt;/p&gt;&lt;p style=&quot;margin:0px;margin-left:8px;&quot;&gt;+ url: string&lt;/p&gt;&lt;p style=&quot;margin:0px;margin-left:8px;&quot;&gt;+ tags: string[]&lt;/p&gt;&lt;p style=&quot;margin:0px;margin-left:8px;&quot;&gt;+ groups: string[]&lt;/p&gt;&lt;p style=&quot;margin:0px;margin-left:8px;&quot;&gt;+ group: string&lt;/p&gt;&lt;p style=&quot;margin:0px;margin-left:8px;&quot;&gt;+ onDelete: (id: string) =&amp;gt; void&lt;/p&gt;" style="align=left;overflow=fill;html=1;dropTarget=0;whiteSpace=wrap;" vertex="1" parent="1">
          <mxGeometry x="340" y="120" width="180" height="140" as="geometry" />
        </mxCell>
        <mxCell id="jncAVk6C4hZ26wRoMgTI-29" value="" style="shape=component;jettyWidth=8;jettyHeight=4;" vertex="1" parent="jncAVk6C4hZ26wRoMgTI-28">
          <mxGeometry x="1" width="20" height="20" relative="1" as="geometry">
            <mxPoint x="-24" y="4" as="offset" />
          </mxGeometry>
        </mxCell>
        <mxCell id="jncAVk6C4hZ26wRoMgTI-33" value="" style="edgeStyle=orthogonalEdgeStyle;rounded=0;orthogonalLoop=1;jettySize=auto;html=1;" edge="1" parent="1" source="jncAVk6C4hZ26wRoMgTI-31" target="jncAVk6C4hZ26wRoMgTI-26">
          <mxGeometry relative="1" as="geometry" />
        </mxCell>
        <mxCell id="jncAVk6C4hZ26wRoMgTI-31" value="&lt;p style=&quot;margin:0px;margin-top:6px;text-align:center;&quot;&gt;&lt;b&gt;Palette&lt;/b&gt;&lt;/p&gt;&lt;hr size=&quot;1&quot; style=&quot;border-style:solid;&quot;&gt;&lt;p style=&quot;margin:0px;margin-left:8px;&quot;&gt;+ name: string&lt;br&gt;+ description: string&lt;/p&gt;&lt;p style=&quot;margin:0px;margin-left:8px;&quot;&gt;+ colors: Colors[]&lt;/p&gt;&lt;p style=&quot;margin:0px;margin-left:8px;&quot;&gt;+ tags: string[]&lt;/p&gt;&lt;p style=&quot;margin:0px;margin-left:8px;&quot;&gt;+ groups: string[]&lt;/p&gt;&lt;p style=&quot;margin:0px;margin-left:8px;&quot;&gt;+ group: string&lt;/p&gt;&lt;p style=&quot;margin:0px;margin-left:8px;&quot;&gt;+ onDelete: (id: string) =&amp;gt; void&lt;/p&gt;" style="align=left;overflow=fill;html=1;dropTarget=0;whiteSpace=wrap;" vertex="1" parent="1">
          <mxGeometry x="355" y="580" width="180" height="140" as="geometry" />
        </mxCell>
        <mxCell id="jncAVk6C4hZ26wRoMgTI-32" value="" style="shape=component;jettyWidth=8;jettyHeight=4;" vertex="1" parent="jncAVk6C4hZ26wRoMgTI-31">
          <mxGeometry x="1" width="20" height="20" relative="1" as="geometry">
            <mxPoint x="-24" y="4" as="offset" />
          </mxGeometry>
        </mxCell>
        <mxCell id="jncAVk6C4hZ26wRoMgTI-83" value="" style="edgeStyle=orthogonalEdgeStyle;rounded=0;orthogonalLoop=1;jettySize=auto;html=1;" edge="1" parent="1" source="jncAVk6C4hZ26wRoMgTI-34" target="jncAVk6C4hZ26wRoMgTI-81">
          <mxGeometry relative="1" as="geometry" />
        </mxCell>
        <mxCell id="jncAVk6C4hZ26wRoMgTI-34" value="Colors" style="swimlane;fontStyle=0;childLayout=stackLayout;horizontal=1;startSize=26;fillColor=none;horizontalStack=0;resizeParent=1;resizeParentMax=0;resizeLast=0;collapsible=1;marginBottom=0;whiteSpace=wrap;html=1;" vertex="1" parent="1">
          <mxGeometry x="215" y="821" width="140" height="78" as="geometry" />
        </mxCell>
        <mxCell id="jncAVk6C4hZ26wRoMgTI-35" value="+ color: string" style="text;strokeColor=none;fillColor=none;align=left;verticalAlign=top;spacingLeft=4;spacingRight=4;overflow=hidden;rotatable=0;points=[[0,0.5],[1,0.5]];portConstraint=eastwest;whiteSpace=wrap;html=1;" vertex="1" parent="jncAVk6C4hZ26wRoMgTI-34">
          <mxGeometry y="26" width="140" height="26" as="geometry" />
        </mxCell>
        <mxCell id="jncAVk6C4hZ26wRoMgTI-36" value="+ id: number" style="text;strokeColor=none;fillColor=none;align=left;verticalAlign=top;spacingLeft=4;spacingRight=4;overflow=hidden;rotatable=0;points=[[0,0.5],[1,0.5]];portConstraint=eastwest;whiteSpace=wrap;html=1;" vertex="1" parent="jncAVk6C4hZ26wRoMgTI-34">
          <mxGeometry y="52" width="140" height="26" as="geometry" />
        </mxCell>
        <mxCell id="jncAVk6C4hZ26wRoMgTI-48" style="edgeStyle=orthogonalEdgeStyle;rounded=0;orthogonalLoop=1;jettySize=auto;html=1;" edge="1" parent="1" source="jncAVk6C4hZ26wRoMgTI-47" target="YczyxIQ4trT35cKekm0H-16">
          <mxGeometry relative="1" as="geometry" />
        </mxCell>
        <mxCell id="jncAVk6C4hZ26wRoMgTI-47" value="VisualReferenceService" style="html=1;whiteSpace=wrap;" vertex="1" parent="1">
          <mxGeometry x="1985" y="150" width="190" height="50" as="geometry" />
        </mxCell>
        <mxCell id="jncAVk6C4hZ26wRoMgTI-50" value="" style="edgeStyle=orthogonalEdgeStyle;rounded=0;orthogonalLoop=1;jettySize=auto;html=1;" edge="1" parent="1" source="jncAVk6C4hZ26wRoMgTI-49" target="jncAVk6C4hZ26wRoMgTI-47">
          <mxGeometry relative="1" as="geometry" />
        </mxCell>
        <mxCell id="jncAVk6C4hZ26wRoMgTI-49" value="LocalStorage" style="shape=cylinder3;whiteSpace=wrap;html=1;boundedLbl=1;backgroundOutline=1;size=15;" vertex="1" parent="1">
          <mxGeometry x="2030" y="10" width="100" height="80" as="geometry" />
        </mxCell>
        <mxCell id="jncAVk6C4hZ26wRoMgTI-54" value="" style="edgeStyle=orthogonalEdgeStyle;rounded=0;orthogonalLoop=1;jettySize=auto;html=1;" edge="1" parent="1" source="jncAVk6C4hZ26wRoMgTI-51" target="YczyxIQ4trT35cKekm0H-19">
          <mxGeometry relative="1" as="geometry" />
        </mxCell>
        <mxCell id="jncAVk6C4hZ26wRoMgTI-51" value="ColorPaletteService" style="html=1;whiteSpace=wrap;" vertex="1" parent="1">
          <mxGeometry x="1985" y="1140" width="190" height="50" as="geometry" />
        </mxCell>
        <mxCell id="jncAVk6C4hZ26wRoMgTI-52" value="" style="edgeStyle=orthogonalEdgeStyle;rounded=0;orthogonalLoop=1;jettySize=auto;html=1;" edge="1" parent="1" source="jncAVk6C4hZ26wRoMgTI-53" target="jncAVk6C4hZ26wRoMgTI-51">
          <mxGeometry relative="1" as="geometry" />
        </mxCell>
        <mxCell id="jncAVk6C4hZ26wRoMgTI-53" value="LocalStorage" style="shape=cylinder3;whiteSpace=wrap;html=1;boundedLbl=1;backgroundOutline=1;size=15;" vertex="1" parent="1">
          <mxGeometry x="2030" y="1260" width="100" height="80" as="geometry" />
        </mxCell>
        <mxCell id="jncAVk6C4hZ26wRoMgTI-59" value="" style="edgeStyle=orthogonalEdgeStyle;rounded=0;orthogonalLoop=1;jettySize=auto;html=1;" edge="1" parent="1" source="jncAVk6C4hZ26wRoMgTI-58" target="jncAVk6C4hZ26wRoMgTI-4">
          <mxGeometry relative="1" as="geometry" />
        </mxCell>
        <mxCell id="jncAVk6C4hZ26wRoMgTI-58" value="Actor" style="shape=umlActor;verticalLabelPosition=bottom;verticalAlign=top;html=1;outlineConnect=0;" vertex="1" parent="1">
          <mxGeometry x="1098.75" y="830" width="30" height="60" as="geometry" />
        </mxCell>
        <mxCell id="jncAVk6C4hZ26wRoMgTI-60" value="VisualReference" style="swimlane;fontStyle=0;childLayout=stackLayout;horizontal=1;startSize=26;fillColor=none;horizontalStack=0;resizeParent=1;resizeParentMax=0;resizeLast=0;collapsible=1;marginBottom=0;whiteSpace=wrap;html=1;" vertex="1" parent="1">
          <mxGeometry x="130" y="-50" width="140" height="182" as="geometry" />
        </mxCell>
        <mxCell id="jncAVk6C4hZ26wRoMgTI-61" value="+ name: string" style="text;strokeColor=none;fillColor=none;align=left;verticalAlign=top;spacingLeft=4;spacingRight=4;overflow=hidden;rotatable=0;points=[[0,0.5],[1,0.5]];portConstraint=eastwest;whiteSpace=wrap;html=1;" vertex="1" parent="jncAVk6C4hZ26wRoMgTI-60">
          <mxGeometry y="26" width="140" height="26" as="geometry" />
        </mxCell>
        <mxCell id="jncAVk6C4hZ26wRoMgTI-67" value="+ id: number" style="text;strokeColor=none;fillColor=none;align=left;verticalAlign=top;spacingLeft=4;spacingRight=4;overflow=hidden;rotatable=0;points=[[0,0.5],[1,0.5]];portConstraint=eastwest;whiteSpace=wrap;html=1;" vertex="1" parent="jncAVk6C4hZ26wRoMgTI-60">
          <mxGeometry y="52" width="140" height="26" as="geometry" />
        </mxCell>
        <mxCell id="jncAVk6C4hZ26wRoMgTI-62" value="+ description: string" style="text;strokeColor=none;fillColor=none;align=left;verticalAlign=top;spacingLeft=4;spacingRight=4;overflow=hidden;rotatable=0;points=[[0,0.5],[1,0.5]];portConstraint=eastwest;whiteSpace=wrap;html=1;" vertex="1" parent="jncAVk6C4hZ26wRoMgTI-60">
          <mxGeometry y="78" width="140" height="26" as="geometry" />
        </mxCell>
        <mxCell id="jncAVk6C4hZ26wRoMgTI-69" value="+ tags: string[]" style="text;strokeColor=none;fillColor=none;align=left;verticalAlign=top;spacingLeft=4;spacingRight=4;overflow=hidden;rotatable=0;points=[[0,0.5],[1,0.5]];portConstraint=eastwest;whiteSpace=wrap;html=1;" vertex="1" parent="jncAVk6C4hZ26wRoMgTI-60">
          <mxGeometry y="104" width="140" height="26" as="geometry" />
        </mxCell>
        <mxCell id="jncAVk6C4hZ26wRoMgTI-80" value="+ group: string" style="text;strokeColor=none;fillColor=none;align=left;verticalAlign=top;spacingLeft=4;spacingRight=4;overflow=hidden;rotatable=0;points=[[0,0.5],[1,0.5]];portConstraint=eastwest;whiteSpace=wrap;html=1;" vertex="1" parent="jncAVk6C4hZ26wRoMgTI-60">
          <mxGeometry y="130" width="140" height="26" as="geometry" />
        </mxCell>
        <mxCell id="jncAVk6C4hZ26wRoMgTI-68" value="+ url: string" style="text;strokeColor=none;fillColor=none;align=left;verticalAlign=top;spacingLeft=4;spacingRight=4;overflow=hidden;rotatable=0;points=[[0,0.5],[1,0.5]];portConstraint=eastwest;whiteSpace=wrap;html=1;" vertex="1" parent="jncAVk6C4hZ26wRoMgTI-60">
          <mxGeometry y="156" width="140" height="26" as="geometry" />
        </mxCell>
        <mxCell id="jncAVk6C4hZ26wRoMgTI-70" style="edgeStyle=orthogonalEdgeStyle;rounded=0;orthogonalLoop=1;jettySize=auto;html=1;" edge="1" parent="1" source="jncAVk6C4hZ26wRoMgTI-62" target="jncAVk6C4hZ26wRoMgTI-28">
          <mxGeometry relative="1" as="geometry" />
        </mxCell>
        <mxCell id="jncAVk6C4hZ26wRoMgTI-74" value="ColorPalette" style="swimlane;fontStyle=0;childLayout=stackLayout;horizontal=1;startSize=26;fillColor=none;horizontalStack=0;resizeParent=1;resizeParentMax=0;resizeLast=0;collapsible=1;marginBottom=0;whiteSpace=wrap;html=1;" vertex="1" parent="1">
          <mxGeometry x="110" y="559" width="140" height="182" as="geometry" />
        </mxCell>
        <mxCell id="jncAVk6C4hZ26wRoMgTI-75" value="+ name: string" style="text;strokeColor=none;fillColor=none;align=left;verticalAlign=top;spacingLeft=4;spacingRight=4;overflow=hidden;rotatable=0;points=[[0,0.5],[1,0.5]];portConstraint=eastwest;whiteSpace=wrap;html=1;" vertex="1" parent="jncAVk6C4hZ26wRoMgTI-74">
          <mxGeometry y="26" width="140" height="26" as="geometry" />
        </mxCell>
        <mxCell id="jncAVk6C4hZ26wRoMgTI-76" value="+ id: number" style="text;strokeColor=none;fillColor=none;align=left;verticalAlign=top;spacingLeft=4;spacingRight=4;overflow=hidden;rotatable=0;points=[[0,0.5],[1,0.5]];portConstraint=eastwest;whiteSpace=wrap;html=1;" vertex="1" parent="jncAVk6C4hZ26wRoMgTI-74">
          <mxGeometry y="52" width="140" height="26" as="geometry" />
        </mxCell>
        <mxCell id="jncAVk6C4hZ26wRoMgTI-77" value="+ description: string" style="text;strokeColor=none;fillColor=none;align=left;verticalAlign=top;spacingLeft=4;spacingRight=4;overflow=hidden;rotatable=0;points=[[0,0.5],[1,0.5]];portConstraint=eastwest;whiteSpace=wrap;html=1;" vertex="1" parent="jncAVk6C4hZ26wRoMgTI-74">
          <mxGeometry y="78" width="140" height="26" as="geometry" />
        </mxCell>
        <mxCell id="jncAVk6C4hZ26wRoMgTI-78" value="+ tags: string[]" style="text;strokeColor=none;fillColor=none;align=left;verticalAlign=top;spacingLeft=4;spacingRight=4;overflow=hidden;rotatable=0;points=[[0,0.5],[1,0.5]];portConstraint=eastwest;whiteSpace=wrap;html=1;" vertex="1" parent="jncAVk6C4hZ26wRoMgTI-74">
          <mxGeometry y="104" width="140" height="26" as="geometry" />
        </mxCell>
        <mxCell id="jncAVk6C4hZ26wRoMgTI-79" value="+ group: string" style="text;strokeColor=none;fillColor=none;align=left;verticalAlign=top;spacingLeft=4;spacingRight=4;overflow=hidden;rotatable=0;points=[[0,0.5],[1,0.5]];portConstraint=eastwest;whiteSpace=wrap;html=1;" vertex="1" parent="jncAVk6C4hZ26wRoMgTI-74">
          <mxGeometry y="130" width="140" height="26" as="geometry" />
        </mxCell>
        <mxCell id="jncAVk6C4hZ26wRoMgTI-81" value="+ colors: Color[]" style="text;strokeColor=none;fillColor=none;align=left;verticalAlign=top;spacingLeft=4;spacingRight=4;overflow=hidden;rotatable=0;points=[[0,0.5],[1,0.5]];portConstraint=eastwest;whiteSpace=wrap;html=1;" vertex="1" parent="jncAVk6C4hZ26wRoMgTI-74">
          <mxGeometry y="156" width="140" height="26" as="geometry" />
        </mxCell>
        <mxCell id="jncAVk6C4hZ26wRoMgTI-82" style="edgeStyle=orthogonalEdgeStyle;rounded=0;orthogonalLoop=1;jettySize=auto;html=1;" edge="1" parent="1" source="jncAVk6C4hZ26wRoMgTI-77" target="jncAVk6C4hZ26wRoMgTI-31">
          <mxGeometry relative="1" as="geometry" />
        </mxCell>
      </root>
    </mxGraphModel>
  </diagram>
</mxfile>
